<svg width="374" height="80" viewBox="0 0 374 80" fill="none" xmlns="http://www.w3.org/2000/svg">
<rect width="374" height="80" fill="white"/>
<path d="M28.9 28.37H25.18V27.32H33.865V28.37H30.145V38H28.9V28.37ZM40.3659 34.19H34.8309C34.8409 35.15 35.0609 35.875 35.4909 36.365C35.9309 36.855 36.5659 37.1 37.3959 37.1C38.2759 37.1 39.0859 36.805 39.8259 36.215L40.2309 37.1C39.9009 37.41 39.4759 37.655 38.9559 37.835C38.4459 38.015 37.9209 38.105 37.3809 38.105C36.2009 38.105 35.2759 37.76 34.6059 37.07C33.9359 36.37 33.6009 35.415 33.6009 34.205C33.6009 33.435 33.7509 32.755 34.0509 32.165C34.3509 31.565 34.7709 31.1 35.3109 30.77C35.8509 30.44 36.4659 30.275 37.1559 30.275C38.1559 30.275 38.9409 30.605 39.5109 31.265C40.0809 31.915 40.3659 32.815 40.3659 33.965V34.19ZM37.1709 31.22C36.5409 31.22 36.0259 31.41 35.6259 31.79C35.2359 32.17 34.9859 32.705 34.8759 33.395H39.2709C39.2109 32.685 39.0009 32.145 38.6409 31.775C38.2909 31.405 37.8009 31.22 37.1709 31.22ZM44.76 38.105C43.49 38.105 42.485 37.78 41.745 37.13L42.15 36.23C42.56 36.55 42.975 36.78 43.395 36.92C43.815 37.06 44.285 37.13 44.805 37.13C45.375 37.13 45.805 37.035 46.095 36.845C46.395 36.645 46.545 36.36 46.545 35.99C46.545 35.69 46.445 35.45 46.245 35.27C46.045 35.09 45.715 34.95 45.255 34.85L43.98 34.55C43.35 34.41 42.86 34.16 42.51 33.8C42.17 33.44 42 33.01 42 32.51C42 31.85 42.265 31.315 42.795 30.905C43.325 30.485 44.025 30.275 44.895 30.275C45.425 30.275 45.925 30.36 46.395 30.53C46.865 30.7 47.26 30.945 47.58 31.265L47.175 32.15C46.465 31.56 45.705 31.265 44.895 31.265C44.355 31.265 43.935 31.37 43.635 31.58C43.345 31.78 43.2 32.065 43.2 32.435C43.2 32.745 43.29 32.99 43.47 33.17C43.66 33.35 43.96 33.49 44.37 33.59L45.645 33.905C46.345 34.065 46.865 34.315 47.205 34.655C47.545 34.985 47.715 35.42 47.715 35.96C47.715 36.61 47.45 37.13 46.92 37.52C46.39 37.91 45.67 38.105 44.76 38.105ZM51.1982 31.415V35.54C51.1982 36.1 51.3132 36.495 51.5432 36.725C51.7732 36.945 52.0982 37.055 52.5182 37.055C52.7982 37.055 53.0682 37.01 53.3282 36.92V37.955C53.0182 38.055 52.6682 38.105 52.2782 38.105C51.5582 38.105 50.9932 37.905 50.5832 37.505C50.1832 37.095 49.9832 36.495 49.9832 35.705V31.415H48.5132V30.455H49.9832V28.52L51.1982 28.085V30.455H53.3582V31.415H51.1982ZM58.8835 27.32H65.6335V28.34H60.0985V32.06H65.3335V33.095H60.0985V36.98H65.6335V38H58.8835V27.32ZM71.3168 30.275C73.1268 30.275 74.0318 31.27 74.0318 33.26V38H72.8168V33.32C72.8168 32.62 72.6768 32.11 72.3968 31.79C72.1168 31.46 71.6768 31.295 71.0768 31.295C70.3768 31.295 69.8168 31.51 69.3968 31.94C68.9768 32.37 68.7668 32.95 68.7668 33.68V38H67.5518V32.57C67.5518 31.79 67.5118 31.085 67.4318 30.455H68.5868L68.7068 31.805C68.9368 31.315 69.2818 30.94 69.7418 30.68C70.2018 30.41 70.7268 30.275 71.3168 30.275ZM83.0463 30.455V37.94C83.0463 39.06 82.7563 39.905 82.1763 40.475C81.6063 41.055 80.7613 41.345 79.6413 41.345C78.4913 41.345 77.5013 41.085 76.6713 40.565L76.8813 39.575C77.3613 39.845 77.8113 40.04 78.2313 40.16C78.6613 40.28 79.1313 40.34 79.6413 40.34C80.3713 40.34 80.9213 40.145 81.2913 39.755C81.6613 39.375 81.8463 38.805 81.8463 38.045V36.26C81.6163 36.74 81.2763 37.115 80.8263 37.385C80.3863 37.645 79.8613 37.775 79.2513 37.775C78.5913 37.775 78.0013 37.62 77.4813 37.31C76.9713 37 76.5763 36.56 76.2963 35.99C76.0163 35.42 75.8763 34.765 75.8763 34.025C75.8763 33.285 76.0163 32.63 76.2963 32.06C76.5763 31.49 76.9713 31.05 77.4813 30.74C78.0013 30.43 78.5913 30.275 79.2513 30.275C79.8513 30.275 80.3713 30.405 80.8113 30.665C81.2613 30.925 81.6013 31.29 81.8313 31.76V30.455H83.0463ZM79.4913 36.755C80.2213 36.755 80.7913 36.515 81.2013 36.035C81.6213 35.545 81.8313 34.875 81.8313 34.025C81.8313 33.175 81.6213 32.51 81.2013 32.03C80.7913 31.54 80.2213 31.295 79.4913 31.295C78.7513 31.295 78.1663 31.54 77.7363 32.03C77.3163 32.51 77.1063 33.175 77.1063 34.025C77.1063 34.875 77.3163 35.545 77.7363 36.035C78.1663 36.515 78.7513 36.755 79.4913 36.755ZM85.379 30.455H86.594V38H85.379V30.455ZM86.744 27.26V28.64H85.259V27.26H86.744ZM92.7182 30.275C94.5282 30.275 95.4332 31.27 95.4332 33.26V38H94.2182V33.32C94.2182 32.62 94.0782 32.11 93.7982 31.79C93.5182 31.46 93.0782 31.295 92.4782 31.295C91.7782 31.295 91.2182 31.51 90.7982 31.94C90.3782 32.37 90.1682 32.95 90.1682 33.68V38H88.9532V32.57C88.9532 31.79 88.9132 31.085 88.8332 30.455H89.9882L90.1082 31.805C90.3382 31.315 90.6832 30.94 91.1432 30.68C91.6032 30.41 92.1282 30.275 92.7182 30.275ZM104.043 34.19H98.5076C98.5176 35.15 98.7376 35.875 99.1676 36.365C99.6076 36.855 100.243 37.1 101.073 37.1C101.953 37.1 102.763 36.805 103.503 36.215L103.908 37.1C103.578 37.41 103.153 37.655 102.633 37.835C102.123 38.015 101.598 38.105 101.058 38.105C99.8776 38.105 98.9526 37.76 98.2826 37.07C97.6126 36.37 97.2776 35.415 97.2776 34.205C97.2776 33.435 97.4276 32.755 97.7276 32.165C98.0276 31.565 98.4476 31.1 98.9876 30.77C99.5276 30.44 100.143 30.275 100.833 30.275C101.833 30.275 102.618 30.605 103.188 31.265C103.758 31.915 104.043 32.815 104.043 33.965V34.19ZM100.848 31.22C100.218 31.22 99.7026 31.41 99.3026 31.79C98.9126 32.17 98.6626 32.705 98.5526 33.395H102.948C102.888 32.685 102.678 32.145 102.318 31.775C101.968 31.405 101.478 31.22 100.848 31.22ZM112.202 34.19H106.667C106.677 35.15 106.897 35.875 107.327 36.365C107.767 36.855 108.402 37.1 109.232 37.1C110.112 37.1 110.922 36.805 111.662 36.215L112.067 37.1C111.737 37.41 111.312 37.655 110.792 37.835C110.282 38.015 109.757 38.105 109.217 38.105C108.037 38.105 107.112 37.76 106.442 37.07C105.772 36.37 105.437 35.415 105.437 34.205C105.437 33.435 105.587 32.755 105.887 32.165C106.187 31.565 106.607 31.1 107.147 30.77C107.687 30.44 108.302 30.275 108.992 30.275C109.992 30.275 110.777 30.605 111.347 31.265C111.917 31.915 112.202 32.815 112.202 33.965V34.19ZM109.007 31.22C108.377 31.22 107.862 31.41 107.462 31.79C107.072 32.17 106.822 32.705 106.712 33.395H111.107C111.047 32.685 110.837 32.145 110.477 31.775C110.127 31.405 109.637 31.22 109.007 31.22ZM117.556 30.275C117.806 30.275 118.036 30.305 118.246 30.365L118.216 31.475C117.986 31.395 117.721 31.355 117.421 31.355C116.691 31.355 116.146 31.585 115.786 32.045C115.436 32.495 115.261 33.045 115.261 33.695V38H114.046V32.57C114.046 31.79 114.006 31.085 113.926 30.455H115.081L115.201 31.85C115.391 31.34 115.696 30.95 116.116 30.68C116.536 30.41 117.016 30.275 117.556 30.275ZM128.102 38.12C127.092 38.12 126.212 37.9 125.462 37.46C124.722 37.02 124.152 36.39 123.752 35.57C123.352 34.74 123.152 33.765 123.152 32.645C123.152 31.525 123.352 30.56 123.752 29.75C124.152 28.93 124.722 28.3 125.462 27.86C126.212 27.42 127.092 27.2 128.102 27.2C128.842 27.2 129.517 27.315 130.127 27.545C130.747 27.765 131.282 28.1 131.732 28.55L131.267 29.495C130.757 29.055 130.252 28.74 129.752 28.55C129.262 28.36 128.717 28.265 128.117 28.265C126.947 28.265 126.037 28.645 125.387 29.405C124.747 30.165 124.427 31.245 124.427 32.645C124.427 34.055 124.747 35.145 125.387 35.915C126.027 36.675 126.937 37.055 128.117 37.055C128.717 37.055 129.262 36.96 129.752 36.77C130.252 36.58 130.757 36.265 131.267 35.825L131.732 36.77C131.282 37.22 130.747 37.56 130.127 37.79C129.517 38.01 128.842 38.12 128.102 38.12ZM140.144 30.455V38H138.944V36.635C138.724 37.105 138.389 37.47 137.939 37.73C137.499 37.98 136.984 38.105 136.394 38.105C135.724 38.105 135.134 37.945 134.624 37.625C134.124 37.305 133.734 36.855 133.454 36.275C133.184 35.685 133.049 35 133.049 34.22C133.049 33.44 133.189 32.755 133.469 32.165C133.749 31.565 134.139 31.1 134.639 30.77C135.149 30.44 135.734 30.275 136.394 30.275C136.984 30.275 137.499 30.405 137.939 30.665C138.379 30.925 138.714 31.29 138.944 31.76V30.455H140.144ZM136.634 37.1C137.374 37.1 137.944 36.85 138.344 36.35C138.744 35.84 138.944 35.12 138.944 34.19C138.944 33.26 138.744 32.545 138.344 32.045C137.944 31.545 137.374 31.295 136.634 31.295C135.894 31.295 135.314 31.555 134.894 32.075C134.484 32.585 134.279 33.3 134.279 34.22C134.279 35.14 134.484 35.85 134.894 36.35C135.304 36.85 135.884 37.1 136.634 37.1ZM150.863 30.275C152.533 30.275 153.368 31.27 153.368 33.26V38H152.153V33.32C152.153 32.61 152.028 32.095 151.778 31.775C151.538 31.455 151.143 31.295 150.593 31.295C149.953 31.295 149.453 31.51 149.093 31.94C148.733 32.37 148.553 32.955 148.553 33.695V38H147.338V33.32C147.338 32.62 147.213 32.11 146.963 31.79C146.713 31.46 146.313 31.295 145.763 31.295C145.123 31.295 144.618 31.51 144.248 31.94C143.888 32.37 143.708 32.955 143.708 33.695V38H142.493V32.57C142.493 31.79 142.453 31.085 142.373 30.455H143.528L143.648 31.775C143.858 31.295 144.168 30.925 144.578 30.665C144.998 30.405 145.483 30.275 146.033 30.275C146.633 30.275 147.123 30.395 147.503 30.635C147.883 30.875 148.163 31.245 148.343 31.745C148.573 31.295 148.908 30.94 149.348 30.68C149.798 30.41 150.303 30.275 150.863 30.275ZM159.442 30.275C160.102 30.275 160.687 30.44 161.197 30.77C161.707 31.1 162.102 31.565 162.382 32.165C162.662 32.755 162.802 33.44 162.802 34.22C162.802 35 162.662 35.685 162.382 36.275C162.102 36.855 161.707 37.305 161.197 37.625C160.697 37.945 160.112 38.105 159.442 38.105C158.852 38.105 158.337 37.975 157.897 37.715C157.457 37.455 157.122 37.085 156.892 36.605V41.24H155.677V32.57C155.677 31.79 155.637 31.085 155.557 30.455H156.712L156.832 31.91C157.042 31.39 157.372 30.99 157.822 30.71C158.282 30.42 158.822 30.275 159.442 30.275ZM159.217 37.1C159.957 37.1 160.527 36.85 160.927 36.35C161.337 35.85 161.542 35.14 161.542 34.22C161.542 33.3 161.337 32.585 160.927 32.075C160.517 31.555 159.947 31.295 159.217 31.295C158.467 31.295 157.892 31.545 157.492 32.045C157.092 32.545 156.892 33.26 156.892 34.19C156.892 35.12 157.092 35.84 157.492 36.35C157.892 36.85 158.467 37.1 159.217 37.1ZM171.316 30.455V38H170.116V36.635C169.896 37.105 169.561 37.47 169.111 37.73C168.671 37.98 168.156 38.105 167.566 38.105C166.896 38.105 166.306 37.945 165.796 37.625C165.296 37.305 164.906 36.855 164.626 36.275C164.356 35.685 164.221 35 164.221 34.22C164.221 33.44 164.361 32.755 164.641 32.165C164.921 31.565 165.311 31.1 165.811 30.77C166.321 30.44 166.906 30.275 167.566 30.275C168.156 30.275 168.671 30.405 169.111 30.665C169.551 30.925 169.886 31.29 170.116 31.76V30.455H171.316ZM167.806 37.1C168.546 37.1 169.116 36.85 169.516 36.35C169.916 35.84 170.116 35.12 170.116 34.19C170.116 33.26 169.916 32.545 169.516 32.045C169.116 31.545 168.546 31.295 167.806 31.295C167.066 31.295 166.486 31.555 166.066 32.075C165.656 32.585 165.451 33.3 165.451 34.22C165.451 35.14 165.656 35.85 166.066 36.35C166.476 36.85 167.056 37.1 167.806 37.1ZM173.665 30.455H174.88V38H173.665V30.455ZM175.03 27.26V28.64H173.545V27.26H175.03ZM183.959 30.455V37.94C183.959 39.06 183.669 39.905 183.089 40.475C182.519 41.055 181.674 41.345 180.554 41.345C179.404 41.345 178.414 41.085 177.584 40.565L177.794 39.575C178.274 39.845 178.724 40.04 179.144 40.16C179.574 40.28 180.044 40.34 180.554 40.34C181.284 40.34 181.834 40.145 182.204 39.755C182.574 39.375 182.759 38.805 182.759 38.045V36.26C182.529 36.74 182.189 37.115 181.739 37.385C181.299 37.645 180.774 37.775 180.164 37.775C179.504 37.775 178.914 37.62 178.394 37.31C177.884 37 177.489 36.56 177.209 35.99C176.929 35.42 176.789 34.765 176.789 34.025C176.789 33.285 176.929 32.63 177.209 32.06C177.489 31.49 177.884 31.05 178.394 30.74C178.914 30.43 179.504 30.275 180.164 30.275C180.764 30.275 181.284 30.405 181.724 30.665C182.174 30.925 182.514 31.29 182.744 31.76V30.455H183.959ZM180.404 36.755C181.134 36.755 181.704 36.515 182.114 36.035C182.534 35.545 182.744 34.875 182.744 34.025C182.744 33.175 182.534 32.51 182.114 32.03C181.704 31.54 181.134 31.295 180.404 31.295C179.664 31.295 179.079 31.54 178.649 32.03C178.229 32.51 178.019 33.175 178.019 34.025C178.019 34.875 178.229 35.545 178.649 36.035C179.079 36.515 179.664 36.755 180.404 36.755ZM190.057 30.275C191.867 30.275 192.772 31.27 192.772 33.26V38H191.557V33.32C191.557 32.62 191.417 32.11 191.137 31.79C190.857 31.46 190.417 31.295 189.817 31.295C189.117 31.295 188.557 31.51 188.137 31.94C187.717 32.37 187.507 32.95 187.507 33.68V38H186.292V32.57C186.292 31.79 186.252 31.085 186.172 30.455H187.327L187.447 31.805C187.677 31.315 188.022 30.94 188.482 30.68C188.942 30.41 189.467 30.275 190.057 30.275Z" fill="#373737"/>
<path d="M0 0H8V40V80H0V0Z" fill="#70738A"/>
<line x1="4.27764e-08" y1="79.5" x2="374" y2="79.5" stroke="#E5E5E5"/>
<line x1="4.27764e-08" y1="0.5" x2="374" y2="0.500032" stroke="#E5E5E5"/>
<path d="M323.145 38.216C324.153 38.488 324.921 38.984 325.449 39.704C325.993 40.424 326.265 41.312 326.265 42.368C326.265 43.856 325.713 45.032 324.609 45.896C323.521 46.76 322.049 47.192 320.193 47.192C319.041 47.192 317.929 47.016 316.857 46.664C315.801 46.312 314.929 45.824 314.241 45.2L315.297 42.944C316.817 44.128 318.409 44.72 320.073 44.72C321.161 44.72 321.969 44.504 322.497 44.072C323.041 43.64 323.313 42.984 323.313 42.104C323.313 41.24 323.041 40.608 322.497 40.208C321.953 39.792 321.113 39.584 319.977 39.584H317.721V37.112H319.569C321.777 37.112 322.881 36.272 322.881 34.592C322.881 33.808 322.641 33.208 322.161 32.792C321.681 32.376 321.009 32.168 320.145 32.168C318.609 32.168 317.073 32.76 315.537 33.944L314.505 31.688C315.193 31.08 316.057 30.6 317.097 30.248C318.153 29.88 319.233 29.696 320.337 29.696C322.017 29.696 323.353 30.112 324.345 30.944C325.353 31.76 325.857 32.856 325.857 34.232C325.841 35.176 325.593 36 325.113 36.704C324.649 37.392 323.993 37.896 323.145 38.216Z" fill="#373737"/>
<path d="M343.166 37.8415C343.166 38.5518 342.622 39.0875 342 39.0875C341.377 39.0875 340.833 38.5518 340.833 37.8415C340.833 37.1311 341.377 36.5955 342 36.5955C342.622 36.5955 343.166 37.1311 343.166 37.8415Z" fill="white" stroke="#373737"/>
<path d="M353.167 37.8415C353.167 38.5518 352.623 39.0875 352 39.0875C351.377 39.0875 350.833 38.5518 350.833 37.8415C350.833 37.1311 351.377 36.5955 352 36.5955C352.623 36.5955 353.167 37.1311 353.167 37.8415Z" fill="white" stroke="#373737"/>
<path d="M349.166 36.7938C349.166 38.0827 348.175 39.0874 347 39.0874C345.825 39.0874 344.833 38.0827 344.833 36.7938C344.833 35.5048 345.825 34.5001 347 34.5001C348.175 34.5001 349.166 35.5048 349.166 36.7938Z" fill="white" stroke="#373737"/>
<path d="M339.69 42.8821C340.12 41.9918 341.176 41.4841 342.333 41.4841C343.491 41.4841 344.547 41.9918 344.976 42.8821C345.181 43.307 345.198 43.9854 345.132 44.6384C345.103 44.9206 345.061 45.1769 345.024 45.373H339.643C339.606 45.1769 339.564 44.9206 339.535 44.6384C339.468 43.9854 339.486 43.307 339.69 42.8821Z" fill="white" stroke="#373737"/>
<path d="M349.024 42.8821C349.453 41.9918 350.509 41.4841 351.667 41.4841C352.824 41.4841 353.88 41.9918 354.31 42.8821C354.514 43.307 354.532 43.9854 354.465 44.6384C354.436 44.9206 354.394 45.1769 354.357 45.373H348.977C348.939 45.1769 348.897 44.9206 348.868 44.6384C348.802 43.9854 348.819 43.307 349.024 42.8821Z" fill="white" stroke="#373737"/>
<path d="M343.744 42.6519C344.29 41.4395 345.605 40.7856 347 40.7856C348.395 40.7856 349.71 41.4395 350.256 42.6519C350.522 43.2433 350.537 44.1584 350.457 45.0019C350.418 45.4093 350.36 45.7748 350.311 46.0386C350.309 46.0497 350.307 46.0606 350.305 46.0713H343.695C343.693 46.0606 343.691 46.0497 343.689 46.0386C343.64 45.7748 343.582 45.4093 343.543 45.0019C343.462 44.1584 343.478 43.2433 343.744 42.6519Z" fill="white" stroke="#373737"/>
</svg>
