<svg width="340" height="111" viewBox="0 0 340 111" fill="none" xmlns="http://www.w3.org/2000/svg">
<g filter="url(#filter0_d)">
<rect x="5" y="4" width="330" height="101" rx="10" fill="white"/>
<rect x="5.5" y="4.5" width="329" height="100" rx="9.5" stroke="#E5E5E5"/>
</g>
<path d="M98.56 38.144C99.232 38.3253 99.744 38.656 100.096 39.136C100.459 39.616 100.64 40.208 100.64 40.912C100.64 41.904 100.272 42.688 99.536 43.264C98.8107 43.84 97.8293 44.128 96.592 44.128C95.824 44.128 95.0827 44.0107 94.368 43.776C93.664 43.5413 93.0827 43.216 92.624 42.8L93.328 41.296C94.3413 42.0853 95.4027 42.48 96.512 42.48C97.2373 42.48 97.776 42.336 98.128 42.048C98.4907 41.76 98.672 41.3227 98.672 40.736C98.672 40.16 98.4907 39.7387 98.128 39.472C97.7653 39.1947 97.2053 39.056 96.448 39.056H94.944V37.408H96.176C97.648 37.408 98.384 36.848 98.384 35.728C98.384 35.2053 98.224 34.8053 97.904 34.528C97.584 34.2507 97.136 34.112 96.56 34.112C95.536 34.112 94.512 34.5067 93.488 35.296L92.8 33.792C93.2587 33.3867 93.8347 33.0667 94.528 32.832C95.232 32.5867 95.952 32.464 96.688 32.464C97.808 32.464 98.6987 32.7413 99.36 33.296C100.032 33.84 100.368 34.5707 100.368 35.488C100.357 36.1173 100.192 36.6667 99.872 37.136C99.5627 37.5947 99.1253 37.9307 98.56 38.144ZM110.736 44.128C109.894 44.128 109.163 43.9573 108.544 43.616C107.926 43.2747 107.451 42.7947 107.12 42.176C106.79 41.5467 106.624 40.8107 106.624 39.968C106.624 39.1253 106.795 38.384 107.136 37.744C107.488 37.104 107.979 36.608 108.608 36.256C109.248 35.8933 109.984 35.712 110.816 35.712C111.392 35.712 111.947 35.8027 112.48 35.984C113.024 36.1653 113.456 36.416 113.776 36.736L113.216 38.144C112.875 37.8667 112.512 37.6587 112.128 37.52C111.744 37.3707 111.366 37.296 110.992 37.296C110.267 37.296 109.702 37.5253 109.296 37.984C108.891 38.432 108.688 39.0827 108.688 39.936C108.688 40.7893 108.886 41.44 109.28 41.888C109.686 42.336 110.256 42.56 110.992 42.56C111.366 42.56 111.744 42.4853 112.128 42.336C112.512 42.1867 112.875 41.9733 113.216 41.696L113.776 43.104C113.435 43.424 112.992 43.6747 112.448 43.856C111.904 44.0373 111.334 44.128 110.736 44.128ZM122.847 35.92V44H120.879V42.704C120.634 43.152 120.282 43.504 119.823 43.76C119.365 44.0053 118.842 44.128 118.255 44.128C117.551 44.128 116.927 43.9573 116.383 43.616C115.839 43.2747 115.418 42.7893 115.119 42.16C114.821 41.5307 114.671 40.8 114.671 39.968C114.671 39.136 114.821 38.4 115.119 37.76C115.429 37.1093 115.855 36.608 116.399 36.256C116.943 35.8933 117.562 35.712 118.255 35.712C118.842 35.712 119.365 35.84 119.823 36.096C120.282 36.3413 120.634 36.688 120.879 37.136V35.92H122.847ZM118.799 42.56C119.461 42.56 119.973 42.3307 120.335 41.872C120.698 41.4133 120.879 40.768 120.879 39.936C120.879 39.0827 120.698 38.4267 120.335 37.968C119.973 37.5093 119.455 37.28 118.783 37.28C118.122 37.28 117.605 37.52 117.231 38C116.869 38.4693 116.687 39.1253 116.687 39.968C116.687 40.8 116.869 41.44 117.231 41.888C117.605 42.336 118.127 42.56 118.799 42.56ZM129.65 35.712C131.58 35.712 132.546 36.8213 132.546 39.04V44H130.546V39.136C130.546 38.496 130.423 38.032 130.178 37.744C129.932 37.4453 129.554 37.296 129.042 37.296C128.434 37.296 127.943 37.4933 127.57 37.888C127.196 38.272 127.01 38.784 127.01 39.424V44H125.026V38.208C125.026 37.3547 124.983 36.592 124.898 35.92H126.77L126.914 37.248C127.191 36.7573 127.564 36.3787 128.034 36.112C128.514 35.8453 129.052 35.712 129.65 35.712ZM142.394 32.224V44H140.426V42.704C140.181 43.152 139.829 43.504 139.37 43.76C138.911 44.0053 138.389 44.128 137.802 44.128C137.109 44.128 136.49 43.952 135.946 43.6C135.402 43.248 134.975 42.752 134.666 42.112C134.367 41.4613 134.218 40.72 134.218 39.888C134.218 39.056 134.367 38.3253 134.666 37.696C134.965 37.0667 135.386 36.5813 135.93 36.24C136.474 35.888 137.098 35.712 137.802 35.712C138.378 35.712 138.89 35.8347 139.338 36.08C139.797 36.3147 140.149 36.6507 140.394 37.088V32.224H142.394ZM138.33 42.56C138.991 42.56 139.503 42.3307 139.866 41.872C140.239 41.4133 140.426 40.7627 140.426 39.92C140.426 39.0773 140.245 38.4267 139.882 37.968C139.519 37.5093 139.007 37.28 138.346 37.28C137.674 37.28 137.151 37.5093 136.778 37.968C136.415 38.416 136.234 39.056 136.234 39.888C136.234 40.7307 136.415 41.3867 136.778 41.856C137.151 42.3253 137.669 42.56 138.33 42.56ZM144.572 35.92H146.556V44H144.572V35.92ZM146.668 32.256V34.224H144.444V32.256H146.668ZM156.472 32.224V44H154.504V42.704C154.259 43.152 153.907 43.504 153.448 43.76C152.99 44.0053 152.467 44.128 151.88 44.128C151.187 44.128 150.568 43.952 150.024 43.6C149.48 43.248 149.054 42.752 148.744 42.112C148.446 41.4613 148.296 40.72 148.296 39.888C148.296 39.056 148.446 38.3253 148.744 37.696C149.043 37.0667 149.464 36.5813 150.008 36.24C150.552 35.888 151.176 35.712 151.88 35.712C152.456 35.712 152.968 35.8347 153.416 36.08C153.875 36.3147 154.227 36.6507 154.472 37.088V32.224H156.472ZM152.408 42.56C153.07 42.56 153.582 42.3307 153.944 41.872C154.318 41.4133 154.504 40.7627 154.504 39.92C154.504 39.0773 154.323 38.4267 153.96 37.968C153.598 37.5093 153.086 37.28 152.424 37.28C151.752 37.28 151.23 37.5093 150.856 37.968C150.494 38.416 150.312 39.056 150.312 39.888C150.312 40.7307 150.494 41.3867 150.856 41.856C151.23 42.3253 151.747 42.56 152.408 42.56ZM166.378 35.92V44H164.411V42.704C164.165 43.152 163.813 43.504 163.355 43.76C162.896 44.0053 162.373 44.128 161.786 44.128C161.083 44.128 160.459 43.9573 159.914 43.616C159.371 43.2747 158.949 42.7893 158.651 42.16C158.352 41.5307 158.203 40.8 158.203 39.968C158.203 39.136 158.352 38.4 158.651 37.76C158.96 37.1093 159.387 36.608 159.931 36.256C160.475 35.8933 161.093 35.712 161.786 35.712C162.373 35.712 162.896 35.84 163.355 36.096C163.813 36.3413 164.165 36.688 164.411 37.136V35.92H166.378ZM162.331 42.56C162.992 42.56 163.504 42.3307 163.867 41.872C164.229 41.4133 164.411 40.768 164.411 39.936C164.411 39.0827 164.229 38.4267 163.867 37.968C163.504 37.5093 162.987 37.28 162.315 37.28C161.653 37.28 161.136 37.52 160.763 38C160.4 38.4693 160.219 39.1253 160.219 39.968C160.219 40.8 160.4 41.44 160.763 41.888C161.136 42.336 161.659 42.56 162.331 42.56ZM171.101 37.424V41.04C171.101 41.9893 171.543 42.464 172.429 42.464C172.674 42.464 172.941 42.4213 173.229 42.336V43.92C172.877 44.048 172.45 44.112 171.949 44.112C171.031 44.112 170.327 43.856 169.837 43.344C169.346 42.832 169.101 42.096 169.101 41.136V37.424H167.549V35.92H169.101V33.952L171.101 33.28V35.92H173.245V37.424H171.101ZM181.691 40.064H176.123C176.166 40.928 176.379 41.568 176.763 41.984C177.158 42.3893 177.739 42.592 178.507 42.592C179.393 42.592 180.214 42.304 180.971 41.728L181.547 43.104C181.163 43.4133 180.689 43.664 180.123 43.856C179.569 44.0373 179.003 44.128 178.427 44.128C177.105 44.128 176.065 43.7547 175.307 43.008C174.55 42.2613 174.171 41.2373 174.171 39.936C174.171 39.1147 174.337 38.384 174.667 37.744C174.998 37.104 175.462 36.608 176.059 36.256C176.657 35.8933 177.334 35.712 178.091 35.712C179.201 35.712 180.075 36.0747 180.715 36.8C181.366 37.5147 181.691 38.5013 181.691 39.76V40.064ZM178.139 37.152C177.606 37.152 177.169 37.312 176.827 37.632C176.497 37.9413 176.283 38.3947 176.187 38.992H179.947C179.883 38.384 179.697 37.9253 179.387 37.616C179.089 37.3067 178.673 37.152 178.139 37.152ZM186.345 44.128C184.884 44.128 183.721 43.7867 182.857 43.104L183.417 41.696C184.281 42.336 185.268 42.656 186.377 42.656C186.857 42.656 187.225 42.576 187.481 42.416C187.748 42.256 187.881 42.032 187.881 41.744C187.881 41.4987 187.79 41.3067 187.609 41.168C187.428 41.0187 187.118 40.8907 186.681 40.784L185.337 40.48C183.865 40.16 183.129 39.408 183.129 38.224C183.129 37.7333 183.268 37.3013 183.545 36.928C183.822 36.544 184.212 36.2453 184.713 36.032C185.214 35.8187 185.796 35.712 186.457 35.712C187.033 35.712 187.588 35.8027 188.121 35.984C188.654 36.1547 189.124 36.4053 189.529 36.736L188.937 38.096C188.126 37.4987 187.294 37.2 186.441 37.2C185.982 37.2 185.625 37.2853 185.369 37.456C185.113 37.6267 184.985 37.8613 184.985 38.16C184.985 38.3947 185.06 38.5813 185.209 38.72C185.369 38.8587 185.636 38.976 186.009 39.072L187.385 39.376C188.185 39.5573 188.766 39.84 189.129 40.224C189.502 40.5973 189.689 41.088 189.689 41.696C189.689 42.4427 189.39 43.0347 188.793 43.472C188.196 43.9093 187.38 44.128 186.345 44.128ZM198.335 37.424V41.04C198.335 41.9893 198.778 42.464 199.663 42.464C199.908 42.464 200.175 42.4213 200.463 42.336V43.92C200.111 44.048 199.684 44.112 199.183 44.112C198.266 44.112 197.562 43.856 197.071 43.344C196.58 42.832 196.335 42.096 196.335 41.136V37.424H194.783V35.92H196.335V33.952L198.335 33.28V35.92H200.479V37.424H198.335ZM205.518 44.128C204.696 44.128 203.971 43.9573 203.342 43.616C202.723 43.2747 202.243 42.7893 201.902 42.16C201.571 41.52 201.406 40.7733 201.406 39.92C201.406 39.0667 201.571 38.3253 201.902 37.696C202.243 37.056 202.723 36.5653 203.342 36.224C203.971 35.8827 204.696 35.712 205.518 35.712C206.328 35.712 207.043 35.8827 207.662 36.224C208.28 36.5653 208.755 37.056 209.086 37.696C209.427 38.3253 209.598 39.0667 209.598 39.92C209.598 40.7733 209.427 41.52 209.086 42.16C208.755 42.7893 208.28 43.2747 207.662 43.616C207.043 43.9573 206.328 44.128 205.518 44.128ZM205.502 42.56C206.184 42.56 206.702 42.3413 207.054 41.904C207.416 41.456 207.598 40.7947 207.598 39.92C207.598 39.056 207.416 38.4 207.054 37.952C206.691 37.4933 206.179 37.264 205.518 37.264C204.846 37.264 204.328 37.4933 203.966 37.952C203.603 38.4 203.422 39.056 203.422 39.92C203.422 40.7947 203.598 41.456 203.95 41.904C204.312 42.3413 204.83 42.56 205.502 42.56ZM220.065 35.728C220.374 35.728 220.641 35.7707 220.865 35.856L220.849 37.68C220.508 37.5413 220.156 37.472 219.793 37.472C219.11 37.472 218.588 37.6693 218.225 38.064C217.873 38.4587 217.697 38.9813 217.697 39.632V44H215.713V38.208C215.713 37.3547 215.67 36.592 215.585 35.92H217.457L217.617 37.344C217.82 36.8213 218.14 36.4213 218.577 36.144C219.014 35.8667 219.51 35.728 220.065 35.728ZM228.894 40.064H223.326C223.369 40.928 223.582 41.568 223.966 41.984C224.361 42.3893 224.942 42.592 225.71 42.592C226.596 42.592 227.417 42.304 228.174 41.728L228.75 43.104C228.366 43.4133 227.892 43.664 227.326 43.856C226.772 44.0373 226.206 44.128 225.63 44.128C224.308 44.128 223.268 43.7547 222.51 43.008C221.753 42.2613 221.374 41.2373 221.374 39.936C221.374 39.1147 221.54 38.384 221.87 37.744C222.201 37.104 222.665 36.608 223.262 36.256C223.86 35.8933 224.537 35.712 225.294 35.712C226.404 35.712 227.278 36.0747 227.918 36.8C228.569 37.5147 228.894 38.5013 228.894 39.76V40.064ZM225.342 37.152C224.809 37.152 224.372 37.312 224.03 37.632C223.7 37.9413 223.486 38.3947 223.39 38.992H227.15C227.086 38.384 226.9 37.9253 226.59 37.616C226.292 37.3067 225.876 37.152 225.342 37.152ZM238.095 35.936L234.559 44H232.815L229.327 35.936H231.423L233.743 41.728L236.111 35.936H238.095ZM239.135 35.92H241.119V44H239.135V35.92ZM241.231 32.256V34.224H239.007V32.256H241.231ZM250.379 40.064H244.811C244.853 40.928 245.067 41.568 245.451 41.984C245.845 42.3893 246.427 42.592 247.195 42.592C248.08 42.592 248.901 42.304 249.659 41.728L250.235 43.104C249.851 43.4133 249.376 43.664 248.811 43.856C248.256 44.0373 247.691 44.128 247.115 44.128C245.792 44.128 244.752 43.7547 243.995 43.008C243.237 42.2613 242.859 41.2373 242.859 39.936C242.859 39.1147 243.024 38.384 243.355 37.744C243.685 37.104 244.149 36.608 244.747 36.256C245.344 35.8933 246.021 35.712 246.779 35.712C247.888 35.712 248.763 36.0747 249.403 36.8C250.053 37.5147 250.379 38.5013 250.379 39.76V40.064ZM246.827 37.152C246.293 37.152 245.856 37.312 245.515 37.632C245.184 37.9413 244.971 38.3947 244.875 38.992H248.635C248.571 38.384 248.384 37.9253 248.075 37.616C247.776 37.3067 247.36 37.152 246.827 37.152ZM264.796 35.92L261.628 44H259.884L257.884 38.704L255.932 44H254.172L251.004 35.92H253.052L255.132 41.616L257.228 35.92H258.668L260.764 41.664L262.844 35.92H264.796Z" fill="#03071B"/>
<path d="M98.492 65.172V66H92.996V65.256L95.984 61.944C96.384 61.496 96.676 61.092 96.86 60.732C97.044 60.372 97.136 60.012 97.136 59.652C97.136 59.18 97 58.82 96.728 58.572C96.456 58.316 96.068 58.188 95.564 58.188C94.748 58.188 93.94 58.516 93.14 59.172L92.768 58.416C93.104 58.096 93.528 57.84 94.04 57.648C94.552 57.456 95.068 57.36 95.588 57.36C96.372 57.36 96.992 57.564 97.448 57.972C97.904 58.372 98.132 58.916 98.132 59.604C98.132 60.092 98.02 60.564 97.796 61.02C97.58 61.468 97.216 61.972 96.704 62.532L94.268 65.172H98.492ZM108.576 59.964V66H107.616V64.908C107.44 65.284 107.172 65.576 106.812 65.784C106.46 65.984 106.048 66.084 105.576 66.084C105.04 66.084 104.568 65.956 104.16 65.7C103.76 65.444 103.448 65.084 103.224 64.62C103.008 64.148 102.9 63.6 102.9 62.976C102.9 62.352 103.012 61.804 103.236 61.332C103.46 60.852 103.772 60.48 104.172 60.216C104.58 59.952 105.048 59.82 105.576 59.82C106.048 59.82 106.46 59.924 106.812 60.132C107.164 60.34 107.432 60.632 107.616 61.008V59.964H108.576ZM105.768 65.28C106.36 65.28 106.816 65.08 107.136 64.68C107.456 64.272 107.616 63.696 107.616 62.952C107.616 62.208 107.456 61.636 107.136 61.236C106.816 60.836 106.36 60.636 105.768 60.636C105.176 60.636 104.712 60.844 104.376 61.26C104.048 61.668 103.884 62.24 103.884 62.976C103.884 63.712 104.048 64.28 104.376 64.68C104.704 65.08 105.168 65.28 105.768 65.28ZM113.264 59.82C113.464 59.82 113.648 59.844 113.816 59.892L113.792 60.78C113.608 60.716 113.396 60.684 113.156 60.684C112.572 60.684 112.136 60.868 111.848 61.236C111.568 61.596 111.428 62.036 111.428 62.556V66H110.456V61.656C110.456 61.032 110.424 60.468 110.36 59.964H111.284L111.38 61.08C111.532 60.672 111.776 60.36 112.112 60.144C112.448 59.928 112.832 59.82 113.264 59.82ZM119.738 62.952H115.31C115.318 63.72 115.494 64.3 115.838 64.692C116.19 65.084 116.698 65.28 117.362 65.28C118.066 65.28 118.714 65.044 119.306 64.572L119.63 65.28C119.366 65.528 119.026 65.724 118.61 65.868C118.202 66.012 117.782 66.084 117.35 66.084C116.406 66.084 115.666 65.808 115.13 65.256C114.594 64.696 114.326 63.932 114.326 62.964C114.326 62.348 114.446 61.804 114.686 61.332C114.926 60.852 115.262 60.48 115.694 60.216C116.126 59.952 116.618 59.82 117.17 59.82C117.97 59.82 118.598 60.084 119.054 60.612C119.51 61.132 119.738 61.852 119.738 62.772V62.952ZM117.182 60.576C116.678 60.576 116.266 60.728 115.946 61.032C115.634 61.336 115.434 61.764 115.346 62.316H118.862C118.814 61.748 118.646 61.316 118.358 61.02C118.078 60.724 117.686 60.576 117.182 60.576ZM129.658 59.964V66H128.698V64.908C128.522 65.284 128.254 65.576 127.894 65.784C127.542 65.984 127.13 66.084 126.658 66.084C126.122 66.084 125.65 65.956 125.242 65.7C124.842 65.444 124.53 65.084 124.306 64.62C124.09 64.148 123.982 63.6 123.982 62.976C123.982 62.352 124.094 61.804 124.318 61.332C124.542 60.852 124.854 60.48 125.254 60.216C125.662 59.952 126.13 59.82 126.658 59.82C127.13 59.82 127.542 59.924 127.894 60.132C128.246 60.34 128.514 60.632 128.698 61.008V59.964H129.658ZM126.85 65.28C127.442 65.28 127.898 65.08 128.218 64.68C128.538 64.272 128.698 63.696 128.698 62.952C128.698 62.208 128.538 61.636 128.218 61.236C127.898 60.836 127.442 60.636 126.85 60.636C126.258 60.636 125.794 60.844 125.458 61.26C125.13 61.668 124.966 62.24 124.966 62.976C124.966 63.712 125.13 64.28 125.458 64.68C125.786 65.08 126.25 65.28 126.85 65.28ZM134.55 59.82C135.078 59.82 135.546 59.948 135.954 60.204C136.362 60.46 136.678 60.824 136.902 61.296C137.126 61.76 137.238 62.304 137.238 62.928C137.238 63.552 137.126 64.104 136.902 64.584C136.678 65.056 136.362 65.424 135.954 65.688C135.546 65.952 135.078 66.084 134.55 66.084C134.078 66.084 133.666 65.98 133.314 65.772C132.962 65.564 132.694 65.268 132.51 64.884V66H131.538V57.168H132.51V61.032C132.686 60.64 132.95 60.34 133.302 60.132C133.662 59.924 134.078 59.82 134.55 59.82ZM134.37 65.28C134.954 65.28 135.41 65.076 135.738 64.668C136.066 64.252 136.23 63.672 136.23 62.928C136.23 62.2 136.066 61.636 135.738 61.236C135.418 60.836 134.962 60.636 134.37 60.636C133.77 60.636 133.31 60.836 132.99 61.236C132.67 61.636 132.51 62.208 132.51 62.952C132.51 63.696 132.67 64.272 132.99 64.68C133.31 65.08 133.77 65.28 134.37 65.28ZM141.229 66.084C140.661 66.084 140.161 65.956 139.729 65.7C139.297 65.444 138.961 65.08 138.721 64.608C138.489 64.136 138.373 63.584 138.373 62.952C138.373 62.32 138.489 61.768 138.721 61.296C138.961 60.824 139.297 60.46 139.729 60.204C140.161 59.948 140.661 59.82 141.229 59.82C141.797 59.82 142.297 59.948 142.729 60.204C143.161 60.46 143.493 60.824 143.725 61.296C143.965 61.768 144.085 62.32 144.085 62.952C144.085 63.584 143.965 64.136 143.725 64.608C143.493 65.08 143.161 65.444 142.729 65.7C142.297 65.956 141.797 66.084 141.229 66.084ZM141.229 65.28C141.829 65.28 142.289 65.084 142.609 64.692C142.929 64.292 143.089 63.712 143.089 62.952C143.089 62.216 142.925 61.648 142.597 61.248C142.269 60.84 141.813 60.636 141.229 60.636C140.637 60.636 140.177 60.84 139.849 61.248C139.521 61.648 139.357 62.216 139.357 62.952C139.357 63.712 139.517 64.292 139.837 64.692C140.165 65.084 140.629 65.28 141.229 65.28ZM150.652 59.964V66H149.704V64.956C149.512 65.324 149.244 65.604 148.9 65.796C148.556 65.988 148.168 66.084 147.736 66.084C147.024 66.084 146.484 65.884 146.116 65.484C145.748 65.084 145.564 64.492 145.564 63.708V59.964H146.536V63.684C146.536 64.228 146.648 64.628 146.872 64.884C147.096 65.14 147.436 65.268 147.892 65.268C148.428 65.268 148.86 65.096 149.188 64.752C149.516 64.4 149.68 63.94 149.68 63.372V59.964H150.652ZM153.822 60.732V64.032C153.822 64.48 153.914 64.796 154.098 64.98C154.282 65.156 154.542 65.244 154.878 65.244C155.102 65.244 155.318 65.208 155.526 65.136V65.964C155.278 66.044 154.998 66.084 154.686 66.084C154.11 66.084 153.658 65.924 153.33 65.604C153.01 65.276 152.85 64.796 152.85 64.164V60.732H151.674V59.964H152.85V58.416L153.822 58.068V59.964H155.55V60.732H153.822ZM161.146 60.732V64.032C161.146 64.48 161.238 64.796 161.422 64.98C161.606 65.156 161.866 65.244 162.202 65.244C162.426 65.244 162.642 65.208 162.85 65.136V65.964C162.602 66.044 162.322 66.084 162.01 66.084C161.434 66.084 160.982 65.924 160.654 65.604C160.334 65.276 160.174 64.796 160.174 64.164V60.732H158.998V59.964H160.174V58.416L161.146 58.068V59.964H162.874V60.732H161.146ZM166.541 66.084C165.973 66.084 165.473 65.956 165.041 65.7C164.609 65.444 164.273 65.08 164.033 64.608C163.801 64.136 163.685 63.584 163.685 62.952C163.685 62.32 163.801 61.768 164.033 61.296C164.273 60.824 164.609 60.46 165.041 60.204C165.473 59.948 165.973 59.82 166.541 59.82C167.109 59.82 167.609 59.948 168.041 60.204C168.473 60.46 168.805 60.824 169.037 61.296C169.277 61.768 169.397 62.32 169.397 62.952C169.397 63.584 169.277 64.136 169.037 64.608C168.805 65.08 168.473 65.444 168.041 65.7C167.609 65.956 167.109 66.084 166.541 66.084ZM166.541 65.28C167.141 65.28 167.601 65.084 167.921 64.692C168.241 64.292 168.401 63.712 168.401 62.952C168.401 62.216 168.237 61.648 167.909 61.248C167.581 60.84 167.125 60.636 166.541 60.636C165.949 60.636 165.489 60.84 165.161 61.248C164.833 61.648 164.669 62.216 164.669 62.952C164.669 63.712 164.829 64.292 165.149 64.692C165.477 65.084 165.941 65.28 166.541 65.28ZM179.093 62.952H174.665C174.673 63.72 174.849 64.3 175.193 64.692C175.545 65.084 176.053 65.28 176.717 65.28C177.421 65.28 178.069 65.044 178.661 64.572L178.985 65.28C178.721 65.528 178.381 65.724 177.965 65.868C177.557 66.012 177.137 66.084 176.705 66.084C175.761 66.084 175.021 65.808 174.485 65.256C173.949 64.696 173.681 63.932 173.681 62.964C173.681 62.348 173.801 61.804 174.041 61.332C174.281 60.852 174.617 60.48 175.049 60.216C175.481 59.952 175.973 59.82 176.525 59.82C177.325 59.82 177.953 60.084 178.409 60.612C178.865 61.132 179.093 61.852 179.093 62.772V62.952ZM176.537 60.576C176.033 60.576 175.621 60.728 175.301 61.032C174.989 61.336 174.789 61.764 174.701 62.316H178.217C178.169 61.748 178.001 61.316 177.713 61.02C177.433 60.724 177.041 60.576 176.537 60.576ZM185.827 66H184.663L182.755 63.624L180.871 66H179.683L182.191 62.892L179.827 59.964H181.003L182.755 62.184L184.507 59.964H185.695L183.343 62.892L185.827 66ZM189.921 59.82C190.449 59.82 190.917 59.952 191.325 60.216C191.733 60.48 192.049 60.852 192.273 61.332C192.497 61.804 192.609 62.352 192.609 62.976C192.609 63.6 192.497 64.148 192.273 64.62C192.049 65.084 191.733 65.444 191.325 65.7C190.925 65.956 190.457 66.084 189.921 66.084C189.449 66.084 189.037 65.98 188.685 65.772C188.333 65.564 188.065 65.268 187.881 64.884V68.592H186.909V61.656C186.909 61.032 186.877 60.468 186.813 59.964H187.737L187.833 61.128C188.001 60.712 188.265 60.392 188.625 60.168C188.993 59.936 189.425 59.82 189.921 59.82ZM189.741 65.28C190.333 65.28 190.789 65.08 191.109 64.68C191.437 64.28 191.601 63.712 191.601 62.976C191.601 62.24 191.437 61.668 191.109 61.26C190.781 60.844 190.325 60.636 189.741 60.636C189.141 60.636 188.681 60.836 188.361 61.236C188.041 61.636 187.881 62.208 187.881 62.952C187.881 63.696 188.041 64.272 188.361 64.68C188.681 65.08 189.141 65.28 189.741 65.28ZM194.104 59.964H195.076V66H194.104V59.964ZM195.196 57.408V58.512H194.008V57.408H195.196ZM199.771 59.82C199.971 59.82 200.155 59.844 200.323 59.892L200.299 60.78C200.115 60.716 199.903 60.684 199.663 60.684C199.079 60.684 198.643 60.868 198.355 61.236C198.075 61.596 197.935 62.036 197.935 62.556V66H196.963V61.656C196.963 61.032 196.931 60.468 196.867 59.964H197.791L197.887 61.08C198.039 60.672 198.283 60.36 198.619 60.144C198.955 59.928 199.339 59.82 199.771 59.82ZM206.246 62.952H201.818C201.826 63.72 202.002 64.3 202.346 64.692C202.698 65.084 203.206 65.28 203.87 65.28C204.574 65.28 205.222 65.044 205.814 64.572L206.138 65.28C205.874 65.528 205.534 65.724 205.118 65.868C204.71 66.012 204.29 66.084 203.858 66.084C202.914 66.084 202.174 65.808 201.638 65.256C201.102 64.696 200.834 63.932 200.834 62.964C200.834 62.348 200.954 61.804 201.194 61.332C201.434 60.852 201.77 60.48 202.202 60.216C202.634 59.952 203.126 59.82 203.678 59.82C204.478 59.82 205.106 60.084 205.562 60.612C206.018 61.132 206.246 61.852 206.246 62.772V62.952ZM203.69 60.576C203.186 60.576 202.774 60.728 202.454 61.032C202.142 61.336 201.942 61.764 201.854 62.316H205.37C205.322 61.748 205.154 61.316 204.866 61.02C204.586 60.724 204.194 60.576 203.69 60.576Z" fill="#9F7434"/>
<path d="M65.7778 58.5488C59.2971 72.0957 55.8761 75.3818 47.4595 75.3818C39.043 75.3818 31.0404 65.7479 24.6855 57.5587C24.1904 57.0636 23.6953 55.0832 23.6953 54.5882C23.6953 53.1028 25.3352 51.9915 26.6658 52.1126C27.2647 51.6832 28.3602 52.6371 28.8702 52.9943L29.1413 53.1028L25.1805 48.647C24.3178 47.0942 26.4189 44.2927 28.1511 44.6863C28.815 44.8371 29.5578 45.5549 30.2471 46.3165L32.6069 48.1519C33.1257 46.803 31.6167 48.1519 29.6364 44.6863C27.656 41.2207 30.0165 37.8103 34.0922 40.2305L39.043 45.1813C38.7665 43.8967 34.661 40.6601 34.0922 39.2403C32.8856 36.2288 36.0725 34.2895 39.043 36.2698C42.0135 38.2501 55.8761 52.6077 55.8761 52.6077C58.5832 54.6739 59.8603 54.5336 61.8171 52.6077C61.8171 52.6077 63.3024 48.1519 65.7778 47.1618C68.2533 46.1716 72.049 48.647 70.7287 51.6176C69.4085 54.5881 65.7778 58.5488 65.7778 58.5488Z" fill="#F6D8AB"/>
<path d="M32.6069 48.1519C33.1257 46.803 31.6167 48.1519 29.6364 44.6863C27.656 41.2207 30.0165 37.8103 34.0922 40.2305L39.043 45.1813C38.7665 43.8967 34.661 40.6601 34.0922 39.2403C32.8856 36.2288 36.0725 34.2895 39.043 36.2698C42.0135 38.2501 55.8761 52.6077 55.8761 52.6077C58.5832 54.6739 59.8603 54.5336 61.8171 52.6077C61.8171 52.6077 63.3024 48.1519 65.7778 47.1618C68.2533 46.1716 72.049 48.647 70.7287 51.6176C69.4085 54.5881 65.7778 58.5488 65.7778 58.5488C59.2972 72.0957 55.8761 75.3818 47.4595 75.3818C39.043 75.3818 31.0404 65.7479 24.6855 57.5587C24.1904 57.0636 23.6953 55.0832 23.6953 54.5881C23.6953 53.1028 25.3352 51.9915 26.6658 52.1126M32.6069 48.1519C32.1525 49.3332 29.8833 45.0798 28.1511 44.6863M32.6069 48.1519C32.6069 48.1519 29.8912 46.0397 28.1511 44.6863M28.1511 44.6863C26.4189 44.2927 24.3178 47.0942 25.1805 48.647M25.1805 48.647C25.9447 49.5066 29.3388 52.5891 29.1413 53.1028M25.1805 48.647C26.7273 50.3871 29.1413 53.1028 29.1413 53.1028M29.1413 53.1028C29.0553 53.3263 27.4426 51.5556 26.6658 52.1126M29.1413 53.1028L26.6658 52.1126" stroke="#F6D8AB"/>
<path d="M43.499 52.2988C43.0039 51.8037 34.5874 40.4166 34.5874 40.4166C34.5874 40.4166 43.499 48.7318 44.9843 50.8135C46.4695 52.8952 43.9941 52.7938 43.499 52.2988Z" fill="#F46A6A"/>
<path d="M37.5581 56.2595C37.063 55.7644 28.6465 44.3773 28.6465 44.3773C28.6465 44.3773 37.5581 52.6925 39.0434 54.7742C40.5286 56.8559 38.0532 56.7545 37.5581 56.2595Z" fill="#F46A6A"/>
<path d="M35.5776 63.1905C35.0825 62.6954 26.666 51.3083 26.666 51.3083C26.666 51.3083 35.5776 59.6235 37.0629 61.7052C38.5481 63.787 36.0727 63.6856 35.5776 63.1905Z" fill="#F46A6A"/>
<path d="M47.9546 33.4853C52.9928 37.1032 55.3956 39.4305 57.8564 44.8723M55.3809 32C60.4192 35.6179 62.8219 37.9453 65.2827 43.387" stroke="#5BC7D1" stroke-width="2"/>
<path d="M33.5864 78.0001C28.7234 74.15 26.4324 71.7125 24.2294 66.1614" stroke="#5BC7D1" stroke-width="2"/>
<defs>
<filter id="filter0_d" x="0" y="0" width="340" height="111" filterUnits="userSpaceOnUse" color-interpolation-filters="sRGB">
<feFlood flood-opacity="0" result="BackgroundImageFix"/>
<feColorMatrix in="SourceAlpha" type="matrix" values="0 0 0 0 0 0 0 0 0 0 0 0 0 0 0 0 0 0 127 0"/>
<feOffset dy="1"/>
<feGaussianBlur stdDeviation="2.5"/>
<feColorMatrix type="matrix" values="0 0 0 0 0 0 0 0 0 0 0 0 0 0 0 0 0 0 0.1 0"/>
<feBlend mode="normal" in2="BackgroundImageFix" result="effect1_dropShadow"/>
<feBlend mode="normal" in="SourceGraphic" in2="effect1_dropShadow" result="shape"/>
</filter>
</defs>
</svg>
