<svg width="340" height="111" viewBox="0 0 340 111" fill="none" xmlns="http://www.w3.org/2000/svg">
<g filter="url(#filter0_d)">
<rect x="5" y="4" width="330" height="101" rx="10" fill="white"/>
<rect x="5.5" y="4.5" width="329" height="100" rx="9.5" stroke="#E5E5E5"/>
</g>
<path d="M111.064 39.488V44H109V39.488L104.376 32.608H106.728L110.024 37.76L113.336 32.608H115.688L111.064 39.488ZM118.549 44.128C117.728 44.128 117.002 43.9573 116.373 43.616C115.754 43.2747 115.274 42.7893 114.933 42.16C114.602 41.52 114.437 40.7733 114.437 39.92C114.437 39.0667 114.602 38.3253 114.933 37.696C115.274 37.056 115.754 36.5653 116.373 36.224C117.002 35.8827 117.728 35.712 118.549 35.712C119.36 35.712 120.074 35.8827 120.693 36.224C121.312 36.5653 121.786 37.056 122.117 37.696C122.458 38.3253 122.629 39.0667 122.629 39.92C122.629 40.7733 122.458 41.52 122.117 42.16C121.786 42.7893 121.312 43.2747 120.693 43.616C120.074 43.9573 119.36 44.128 118.549 44.128ZM118.533 42.56C119.216 42.56 119.733 42.3413 120.085 41.904C120.448 41.456 120.629 40.7947 120.629 39.92C120.629 39.056 120.448 38.4 120.085 37.952C119.722 37.4933 119.21 37.264 118.549 37.264C117.877 37.264 117.36 37.4933 116.997 37.952C116.634 38.4 116.453 39.056 116.453 39.92C116.453 40.7947 116.629 41.456 116.981 41.904C117.344 42.3413 117.861 42.56 118.533 42.56ZM131.714 35.92V44H129.762V42.752C129.506 43.2 129.164 43.5413 128.738 43.776C128.311 44.0107 127.82 44.128 127.266 44.128C125.292 44.128 124.306 43.0187 124.306 40.8V35.92H126.29V40.816C126.29 41.4027 126.407 41.8347 126.642 42.112C126.887 42.3893 127.26 42.528 127.762 42.528C128.348 42.528 128.818 42.336 129.17 41.952C129.522 41.568 129.698 41.056 129.698 40.416V35.92H131.714ZM146.003 35.92V44H144.036V42.704C143.79 43.152 143.438 43.504 142.98 43.76C142.521 44.0053 141.998 44.128 141.411 44.128C140.708 44.128 140.084 43.9573 139.539 43.616C138.996 43.2747 138.574 42.7893 138.276 42.16C137.977 41.5307 137.828 40.8 137.828 39.968C137.828 39.136 137.977 38.4 138.276 37.76C138.585 37.1093 139.012 36.608 139.556 36.256C140.1 35.8933 140.718 35.712 141.411 35.712C141.998 35.712 142.521 35.84 142.98 36.096C143.438 36.3413 143.79 36.688 144.036 37.136V35.92H146.003ZM141.956 42.56C142.617 42.56 143.129 42.3307 143.492 41.872C143.854 41.4133 144.036 40.768 144.036 39.936C144.036 39.0827 143.854 38.4267 143.492 37.968C143.129 37.5093 142.612 37.28 141.94 37.28C141.278 37.28 140.761 37.52 140.388 38C140.025 38.4693 139.844 39.1253 139.844 39.968C139.844 40.8 140.025 41.44 140.388 41.888C140.761 42.336 141.284 42.56 141.956 42.56ZM152.534 35.728C152.843 35.728 153.11 35.7707 153.334 35.856L153.318 37.68C152.976 37.5413 152.624 37.472 152.262 37.472C151.579 37.472 151.056 37.6693 150.694 38.064C150.342 38.4587 150.166 38.9813 150.166 39.632V44H148.182V38.208C148.182 37.3547 148.139 36.592 148.054 35.92H149.926L150.086 37.344C150.288 36.8213 150.608 36.4213 151.046 36.144C151.483 35.8667 151.979 35.728 152.534 35.728ZM161.363 40.064H155.795C155.838 40.928 156.051 41.568 156.435 41.984C156.83 42.3893 157.411 42.592 158.179 42.592C159.064 42.592 159.886 42.304 160.643 41.728L161.219 43.104C160.835 43.4133 160.36 43.664 159.795 43.856C159.24 44.0373 158.675 44.128 158.099 44.128C156.776 44.128 155.736 43.7547 154.979 43.008C154.222 42.2613 153.843 41.2373 153.843 39.936C153.843 39.1147 154.008 38.384 154.339 37.744C154.67 37.104 155.134 36.608 155.731 36.256C156.328 35.8933 157.006 35.712 157.763 35.712C158.872 35.712 159.747 36.0747 160.387 36.8C161.038 37.5147 161.363 38.5013 161.363 39.76V40.064ZM157.811 37.152C157.278 37.152 156.84 37.312 156.499 37.632C156.168 37.9413 155.955 38.3947 155.859 38.992H159.619C159.555 38.384 159.368 37.9253 159.059 37.616C158.76 37.3067 158.344 37.152 157.811 37.152ZM175.175 35.92V44H173.207V42.704C172.962 43.152 172.61 43.504 172.151 43.76C171.693 44.0053 171.17 44.128 170.583 44.128C169.879 44.128 169.255 43.9573 168.711 43.616C168.167 43.2747 167.746 42.7893 167.447 42.16C167.149 41.5307 166.999 40.8 166.999 39.968C166.999 39.136 167.149 38.4 167.447 37.76C167.757 37.1093 168.183 36.608 168.727 36.256C169.271 35.8933 169.89 35.712 170.583 35.712C171.17 35.712 171.693 35.84 172.151 36.096C172.61 36.3413 172.962 36.688 173.207 37.136V35.92H175.175ZM171.127 42.56C171.789 42.56 172.301 42.3307 172.663 41.872C173.026 41.4133 173.207 40.768 173.207 39.936C173.207 39.0827 173.026 38.4267 172.663 37.968C172.301 37.5093 171.783 37.28 171.111 37.28C170.45 37.28 169.933 37.52 169.559 38C169.197 38.4693 169.015 39.1253 169.015 39.968C169.015 40.8 169.197 41.44 169.559 41.888C169.933 42.336 170.455 42.56 171.127 42.56ZM177.354 32.224H179.338V44H177.354V32.224ZM181.526 32.224H183.51V44H181.526V32.224ZM193.752 44.128C192.909 44.128 192.179 43.9573 191.56 43.616C190.941 43.2747 190.467 42.7947 190.136 42.176C189.805 41.5467 189.64 40.8107 189.64 39.968C189.64 39.1253 189.811 38.384 190.152 37.744C190.504 37.104 190.995 36.608 191.624 36.256C192.264 35.8933 193 35.712 193.832 35.712C194.408 35.712 194.963 35.8027 195.496 35.984C196.04 36.1653 196.472 36.416 196.792 36.736L196.232 38.144C195.891 37.8667 195.528 37.6587 195.144 37.52C194.76 37.3707 194.381 37.296 194.008 37.296C193.283 37.296 192.717 37.5253 192.312 37.984C191.907 38.432 191.704 39.0827 191.704 39.936C191.704 40.7893 191.901 41.44 192.296 41.888C192.701 42.336 193.272 42.56 194.008 42.56C194.381 42.56 194.76 42.4853 195.144 42.336C195.528 42.1867 195.891 41.9733 196.232 41.696L196.792 43.104C196.451 43.424 196.008 43.6747 195.464 43.856C194.92 44.0373 194.349 44.128 193.752 44.128ZM205.863 35.92V44H203.895V42.704C203.65 43.152 203.298 43.504 202.839 43.76C202.38 44.0053 201.858 44.128 201.271 44.128C200.567 44.128 199.943 43.9573 199.399 43.616C198.855 43.2747 198.434 42.7893 198.135 42.16C197.836 41.5307 197.687 40.8 197.687 39.968C197.687 39.136 197.836 38.4 198.135 37.76C198.444 37.1093 198.871 36.608 199.415 36.256C199.959 35.8933 200.578 35.712 201.271 35.712C201.858 35.712 202.38 35.84 202.839 36.096C203.298 36.3413 203.65 36.688 203.895 37.136V35.92H205.863ZM201.815 42.56C202.476 42.56 202.988 42.3307 203.351 41.872C203.714 41.4133 203.895 40.768 203.895 39.936C203.895 39.0827 203.714 38.4267 203.351 37.968C202.988 37.5093 202.471 37.28 201.799 37.28C201.138 37.28 200.62 37.52 200.247 38C199.884 38.4693 199.703 39.1253 199.703 39.968C199.703 40.8 199.884 41.44 200.247 41.888C200.62 42.336 201.143 42.56 201.815 42.56ZM215.401 35.92V44H213.449V42.752C213.193 43.2 212.852 43.5413 212.425 43.776C211.998 44.0107 211.508 44.128 210.953 44.128C208.98 44.128 207.993 43.0187 207.993 40.8V35.92H209.977V40.816C209.977 41.4027 210.094 41.8347 210.329 42.112C210.574 42.3893 210.948 42.528 211.449 42.528C212.036 42.528 212.505 42.336 212.857 41.952C213.209 41.568 213.385 41.056 213.385 40.416V35.92H215.401ZM225.38 35.92V43.744C225.38 45.0027 225.034 45.9573 224.34 46.608C223.647 47.2587 222.628 47.584 221.284 47.584C220.036 47.584 218.938 47.3227 217.988 46.8L218.308 45.28C219.29 45.792 220.266 46.048 221.236 46.048C222.676 46.048 223.396 45.3333 223.396 43.904V42.304C223.151 42.7413 222.794 43.0987 222.324 43.376C221.855 43.6427 221.327 43.776 220.74 43.776C220.036 43.776 219.407 43.6107 218.852 43.28C218.308 42.9387 217.882 42.464 217.572 41.856C217.274 41.2373 217.124 40.5333 217.124 39.744C217.124 38.9547 217.274 38.256 217.572 37.648C217.882 37.0293 218.308 36.5547 218.852 36.224C219.407 35.8827 220.036 35.712 220.74 35.712C221.338 35.712 221.866 35.84 222.324 36.096C222.794 36.3413 223.151 36.688 223.396 37.136V35.92H225.38ZM221.268 42.208C221.93 42.208 222.447 41.9893 222.82 41.552C223.204 41.1147 223.396 40.512 223.396 39.744C223.396 38.976 223.21 38.3733 222.836 37.936C222.463 37.4987 221.94 37.28 221.268 37.28C220.607 37.28 220.084 37.4987 219.7 37.936C219.327 38.3733 219.14 38.976 219.14 39.744C219.14 40.512 219.327 41.1147 219.7 41.552C220.084 41.9893 220.607 42.208 221.268 42.208ZM232.165 35.712C234.096 35.712 235.061 36.8213 235.061 39.04V44H233.061V39.136C233.061 38.496 232.938 38.032 232.693 37.744C232.448 37.4453 232.069 37.296 231.557 37.296C230.949 37.296 230.458 37.4933 230.085 37.888C229.712 38.272 229.525 38.784 229.525 39.424V44H227.541V32.224H229.525V37.088C229.802 36.6507 230.17 36.3147 230.629 36.08C231.088 35.8347 231.6 35.712 232.165 35.712ZM239.726 37.424V41.04C239.726 41.9893 240.168 42.464 241.054 42.464C241.299 42.464 241.566 42.4213 241.854 42.336V43.92C241.502 44.048 241.075 44.112 240.574 44.112C239.656 44.112 238.952 43.856 238.462 43.344C237.971 42.832 237.726 42.096 237.726 41.136V37.424H236.174V35.92H237.726V33.952L239.726 33.28V35.92H241.87V37.424H239.726ZM254.995 35.92V44H253.043V42.752C252.787 43.2 252.446 43.5413 252.019 43.776C251.592 44.0107 251.102 44.128 250.547 44.128C248.574 44.128 247.587 43.0187 247.587 40.8V35.92H249.571V40.816C249.571 41.4027 249.688 41.8347 249.923 42.112C250.168 42.3893 250.542 42.528 251.043 42.528C251.63 42.528 252.099 42.336 252.451 41.952C252.803 41.568 252.979 41.056 252.979 40.416V35.92H254.995ZM261.774 35.712C262.467 35.712 263.081 35.8933 263.614 36.256C264.158 36.608 264.579 37.1093 264.878 37.76C265.187 38.4 265.342 39.136 265.342 39.968C265.342 40.8 265.193 41.5307 264.894 42.16C264.595 42.7893 264.174 43.2747 263.63 43.616C263.097 43.9573 262.478 44.128 261.774 44.128C261.187 44.128 260.665 44.0053 260.206 43.76C259.747 43.504 259.395 43.152 259.15 42.704V47.456H257.166V38.208C257.166 37.3547 257.123 36.592 257.038 35.92H258.91L259.07 37.312C259.283 36.8107 259.63 36.4213 260.11 36.144C260.59 35.856 261.145 35.712 261.774 35.712ZM261.23 42.56C261.902 42.56 262.419 42.336 262.782 41.888C263.145 41.44 263.326 40.8 263.326 39.968C263.326 39.1253 263.145 38.4693 262.782 38C262.419 37.52 261.907 37.28 261.246 37.28C260.563 37.28 260.041 37.5093 259.678 37.968C259.315 38.4267 259.134 39.0827 259.134 39.936C259.134 40.7787 259.315 41.4293 259.678 41.888C260.041 42.336 260.558 42.56 261.23 42.56ZM266.752 32.592L269.232 32.608L268.608 40.576H267.392L266.752 32.592ZM269.12 41.76V44H266.88V41.76H269.12Z" fill="#03071B"/>
<path d="M109.128 58.544V62H108.144V58.532L104.784 53.456H105.936L108.648 57.656L111.36 53.456H112.488L109.128 58.544ZM114.795 62.084C114.227 62.084 113.727 61.956 113.295 61.7C112.863 61.444 112.527 61.08 112.287 60.608C112.055 60.136 111.939 59.584 111.939 58.952C111.939 58.32 112.055 57.768 112.287 57.296C112.527 56.824 112.863 56.46 113.295 56.204C113.727 55.948 114.227 55.82 114.795 55.82C115.363 55.82 115.863 55.948 116.295 56.204C116.727 56.46 117.059 56.824 117.291 57.296C117.531 57.768 117.651 58.32 117.651 58.952C117.651 59.584 117.531 60.136 117.291 60.608C117.059 61.08 116.727 61.444 116.295 61.7C115.863 61.956 115.363 62.084 114.795 62.084ZM114.795 61.28C115.395 61.28 115.855 61.084 116.175 60.692C116.495 60.292 116.655 59.712 116.655 58.952C116.655 58.216 116.491 57.648 116.163 57.248C115.835 56.84 115.379 56.636 114.795 56.636C114.203 56.636 113.743 56.84 113.415 57.248C113.087 57.648 112.923 58.216 112.923 58.952C112.923 59.712 113.083 60.292 113.403 60.692C113.731 61.084 114.195 61.28 114.795 61.28ZM124.218 55.964V62H123.27V60.956C123.078 61.324 122.81 61.604 122.466 61.796C122.122 61.988 121.734 62.084 121.302 62.084C120.59 62.084 120.05 61.884 119.682 61.484C119.314 61.084 119.13 60.492 119.13 59.708V55.964H120.102V59.684C120.102 60.228 120.214 60.628 120.438 60.884C120.662 61.14 121.002 61.268 121.458 61.268C121.994 61.268 122.426 61.096 122.754 60.752C123.082 60.4 123.246 59.94 123.246 59.372V55.964H124.218ZM128.9 55.82C129.1 55.82 129.284 55.844 129.452 55.892L129.428 56.78C129.244 56.716 129.032 56.684 128.792 56.684C128.208 56.684 127.772 56.868 127.484 57.236C127.204 57.596 127.064 58.036 127.064 58.556V62H126.092V57.656C126.092 57.032 126.06 56.468 125.996 55.964H126.92L127.016 57.08C127.168 56.672 127.412 56.36 127.748 56.144C128.084 55.928 128.468 55.82 128.9 55.82ZM136.101 62.084C135.517 62.084 135.005 61.956 134.565 61.7C134.133 61.444 133.797 61.084 133.557 60.62C133.325 60.148 133.209 59.6 133.209 58.976C133.209 58.352 133.329 57.804 133.569 57.332C133.809 56.852 134.149 56.48 134.589 56.216C135.037 55.952 135.557 55.82 136.149 55.82C136.557 55.82 136.949 55.892 137.325 56.036C137.709 56.172 138.025 56.364 138.273 56.612L137.949 57.332C137.645 57.092 137.349 56.916 137.061 56.804C136.781 56.692 136.493 56.636 136.197 56.636C135.581 56.636 135.097 56.844 134.745 57.26C134.393 57.668 134.217 58.24 134.217 58.976C134.217 59.704 134.389 60.272 134.733 60.68C135.085 61.08 135.573 61.28 136.197 61.28C136.493 61.28 136.781 61.224 137.061 61.112C137.349 61 137.645 60.824 137.949 60.584L138.273 61.304C138.017 61.544 137.693 61.736 137.301 61.88C136.917 62.016 136.517 62.084 136.101 62.084ZM144.826 55.964V62H143.866V60.908C143.69 61.284 143.422 61.576 143.062 61.784C142.71 61.984 142.298 62.084 141.826 62.084C141.29 62.084 140.818 61.956 140.41 61.7C140.01 61.444 139.698 61.084 139.474 60.62C139.258 60.148 139.15 59.6 139.15 58.976C139.15 58.352 139.262 57.804 139.486 57.332C139.71 56.852 140.022 56.48 140.422 56.216C140.83 55.952 141.298 55.82 141.826 55.82C142.298 55.82 142.71 55.924 143.062 56.132C143.414 56.34 143.682 56.632 143.866 57.008V55.964H144.826ZM142.018 61.28C142.61 61.28 143.066 61.08 143.386 60.68C143.706 60.272 143.866 59.696 143.866 58.952C143.866 58.208 143.706 57.636 143.386 57.236C143.066 56.836 142.61 56.636 142.018 56.636C141.426 56.636 140.962 56.844 140.626 57.26C140.298 57.668 140.134 58.24 140.134 58.976C140.134 59.712 140.298 60.28 140.626 60.68C140.954 61.08 141.418 61.28 142.018 61.28ZM149.718 55.82C151.166 55.82 151.89 56.616 151.89 58.208V62H150.918V58.256C150.918 57.696 150.806 57.288 150.582 57.032C150.358 56.768 150.006 56.636 149.526 56.636C148.966 56.636 148.518 56.808 148.182 57.152C147.846 57.496 147.678 57.96 147.678 58.544V62H146.706V57.656C146.706 57.032 146.674 56.468 146.61 55.964H147.534L147.63 57.044C147.814 56.652 148.09 56.352 148.458 56.144C148.826 55.928 149.246 55.82 149.718 55.82ZM159.041 53.168V62H158.081V60.908C157.905 61.284 157.637 61.576 157.277 61.784C156.925 61.984 156.513 62.084 156.041 62.084C155.513 62.084 155.045 61.952 154.637 61.688C154.237 61.424 153.925 61.056 153.701 60.584C153.477 60.104 153.365 59.552 153.365 58.928C153.365 58.304 153.473 57.76 153.689 57.296C153.913 56.824 154.229 56.46 154.637 56.204C155.045 55.948 155.513 55.82 156.041 55.82C156.513 55.82 156.925 55.924 157.277 56.132C157.629 56.332 157.893 56.616 158.069 56.984V53.168H159.041ZM156.233 61.28C156.825 61.28 157.281 61.08 157.601 60.68C157.921 60.272 158.081 59.696 158.081 58.952C158.081 58.216 157.921 57.648 157.601 57.248C157.281 56.84 156.825 56.636 156.233 56.636C155.641 56.636 155.177 56.836 154.841 57.236C154.513 57.636 154.349 58.2 154.349 58.928C154.349 59.672 154.513 60.252 154.841 60.668C155.177 61.076 155.641 61.28 156.233 61.28ZM160.92 55.964H161.892V62H160.92V55.964ZM162.012 53.408V54.512H160.824V53.408H162.012ZM169.096 53.168V62H168.136V60.908C167.96 61.284 167.692 61.576 167.332 61.784C166.98 61.984 166.568 62.084 166.096 62.084C165.568 62.084 165.1 61.952 164.692 61.688C164.292 61.424 163.98 61.056 163.756 60.584C163.532 60.104 163.42 59.552 163.42 58.928C163.42 58.304 163.528 57.76 163.744 57.296C163.968 56.824 164.284 56.46 164.692 56.204C165.1 55.948 165.568 55.82 166.096 55.82C166.568 55.82 166.98 55.924 167.332 56.132C167.684 56.332 167.948 56.616 168.124 56.984V53.168H169.096ZM166.288 61.28C166.88 61.28 167.336 61.08 167.656 60.68C167.976 60.272 168.136 59.696 168.136 58.952C168.136 58.216 167.976 57.648 167.656 57.248C167.336 56.84 166.88 56.636 166.288 56.636C165.696 56.636 165.232 56.836 164.896 57.236C164.568 57.636 164.404 58.2 164.404 58.928C164.404 59.672 164.568 60.252 164.896 60.668C165.232 61.076 165.696 61.28 166.288 61.28ZM176.291 55.964V62H175.331V60.908C175.155 61.284 174.887 61.576 174.527 61.784C174.175 61.984 173.763 62.084 173.291 62.084C172.755 62.084 172.283 61.956 171.875 61.7C171.475 61.444 171.163 61.084 170.939 60.62C170.723 60.148 170.615 59.6 170.615 58.976C170.615 58.352 170.727 57.804 170.951 57.332C171.175 56.852 171.487 56.48 171.887 56.216C172.295 55.952 172.763 55.82 173.291 55.82C173.763 55.82 174.175 55.924 174.527 56.132C174.879 56.34 175.147 56.632 175.331 57.008V55.964H176.291ZM173.483 61.28C174.075 61.28 174.531 61.08 174.851 60.68C175.171 60.272 175.331 59.696 175.331 58.952C175.331 58.208 175.171 57.636 174.851 57.236C174.531 56.836 174.075 56.636 173.483 56.636C172.891 56.636 172.427 56.844 172.091 57.26C171.763 57.668 171.599 58.24 171.599 58.976C171.599 59.712 171.763 60.28 172.091 60.68C172.419 61.08 172.883 61.28 173.483 61.28ZM179.466 56.732V60.032C179.466 60.48 179.558 60.796 179.742 60.98C179.926 61.156 180.186 61.244 180.522 61.244C180.746 61.244 180.962 61.208 181.17 61.136V61.964C180.922 62.044 180.642 62.084 180.33 62.084C179.754 62.084 179.302 61.924 178.974 61.604C178.654 61.276 178.494 60.796 178.494 60.164V56.732H177.318V55.964H178.494V54.416L179.466 54.068V55.964H181.194V56.732H179.466ZM187.418 58.952H182.99C182.998 59.72 183.174 60.3 183.518 60.692C183.87 61.084 184.378 61.28 185.042 61.28C185.746 61.28 186.394 61.044 186.986 60.572L187.31 61.28C187.046 61.528 186.706 61.724 186.29 61.868C185.882 62.012 185.462 62.084 185.03 62.084C184.086 62.084 183.346 61.808 182.81 61.256C182.274 60.696 182.006 59.932 182.006 58.964C182.006 58.348 182.126 57.804 182.366 57.332C182.606 56.852 182.942 56.48 183.374 56.216C183.806 55.952 184.298 55.82 184.85 55.82C185.65 55.82 186.278 56.084 186.734 56.612C187.19 57.132 187.418 57.852 187.418 58.772V58.952ZM184.862 56.576C184.358 56.576 183.946 56.728 183.626 57.032C183.314 57.336 183.114 57.764 183.026 58.316H186.542C186.494 57.748 186.326 57.316 186.038 57.02C185.758 56.724 185.366 56.576 184.862 56.576ZM194.062 62.084C193.046 62.084 192.242 61.824 191.65 61.304L191.974 60.584C192.302 60.84 192.634 61.024 192.97 61.136C193.306 61.248 193.682 61.304 194.098 61.304C194.554 61.304 194.898 61.228 195.13 61.076C195.37 60.916 195.49 60.688 195.49 60.392C195.49 60.152 195.41 59.96 195.25 59.816C195.09 59.672 194.826 59.56 194.458 59.48L193.438 59.24C192.934 59.128 192.542 58.928 192.262 58.64C191.99 58.352 191.854 58.008 191.854 57.608C191.854 57.08 192.066 56.652 192.49 56.324C192.914 55.988 193.474 55.82 194.17 55.82C194.594 55.82 194.994 55.888 195.37 56.024C195.746 56.16 196.062 56.356 196.318 56.612L195.994 57.32C195.426 56.848 194.818 56.612 194.17 56.612C193.738 56.612 193.402 56.696 193.162 56.864C192.93 57.024 192.814 57.252 192.814 57.548C192.814 57.796 192.886 57.992 193.03 58.136C193.182 58.28 193.422 58.392 193.75 58.472L194.77 58.724C195.33 58.852 195.746 59.052 196.018 59.324C196.29 59.588 196.426 59.936 196.426 60.368C196.426 60.888 196.214 61.304 195.79 61.616C195.366 61.928 194.79 62.084 194.062 62.084ZM199.212 56.732V60.032C199.212 60.48 199.304 60.796 199.488 60.98C199.672 61.156 199.932 61.244 200.268 61.244C200.492 61.244 200.708 61.208 200.916 61.136V61.964C200.668 62.044 200.388 62.084 200.076 62.084C199.5 62.084 199.048 61.924 198.72 61.604C198.4 61.276 198.24 60.796 198.24 60.164V56.732H197.064V55.964H198.24V54.416L199.212 54.068V55.964H200.94V56.732H199.212ZM207.428 55.964V62H206.468V60.908C206.292 61.284 206.024 61.576 205.664 61.784C205.312 61.984 204.9 62.084 204.428 62.084C203.892 62.084 203.42 61.956 203.012 61.7C202.612 61.444 202.3 61.084 202.076 60.62C201.86 60.148 201.752 59.6 201.752 58.976C201.752 58.352 201.864 57.804 202.088 57.332C202.312 56.852 202.624 56.48 203.024 56.216C203.432 55.952 203.9 55.82 204.428 55.82C204.9 55.82 205.312 55.924 205.664 56.132C206.016 56.34 206.284 56.632 206.468 57.008V55.964H207.428ZM204.62 61.28C205.212 61.28 205.668 61.08 205.988 60.68C206.308 60.272 206.468 59.696 206.468 58.952C206.468 58.208 206.308 57.636 205.988 57.236C205.668 56.836 205.212 56.636 204.62 56.636C204.028 56.636 203.564 56.844 203.228 57.26C202.9 57.668 202.736 58.24 202.736 58.976C202.736 59.712 202.9 60.28 203.228 60.68C203.556 61.08 204.02 61.28 204.62 61.28ZM210.603 56.732V60.032C210.603 60.48 210.695 60.796 210.879 60.98C211.063 61.156 211.323 61.244 211.659 61.244C211.883 61.244 212.099 61.208 212.307 61.136V61.964C212.059 62.044 211.779 62.084 211.467 62.084C210.891 62.084 210.439 61.924 210.111 61.604C209.791 61.276 209.631 60.796 209.631 60.164V56.732H208.455V55.964H209.631V54.416L210.603 54.068V55.964H212.331V56.732H210.603ZM218.554 55.964V62H217.606V60.956C217.414 61.324 217.146 61.604 216.802 61.796C216.458 61.988 216.07 62.084 215.638 62.084C214.926 62.084 214.386 61.884 214.018 61.484C213.65 61.084 213.466 60.492 213.466 59.708V55.964H214.438V59.684C214.438 60.228 214.55 60.628 214.774 60.884C214.998 61.14 215.338 61.268 215.794 61.268C216.33 61.268 216.762 61.096 217.09 60.752C217.418 60.4 217.582 59.94 217.582 59.372V55.964H218.554ZM222.468 62.084C221.452 62.084 220.648 61.824 220.056 61.304L220.38 60.584C220.708 60.84 221.04 61.024 221.376 61.136C221.712 61.248 222.088 61.304 222.504 61.304C222.96 61.304 223.304 61.228 223.536 61.076C223.776 60.916 223.896 60.688 223.896 60.392C223.896 60.152 223.816 59.96 223.656 59.816C223.496 59.672 223.232 59.56 222.864 59.48L221.844 59.24C221.34 59.128 220.948 58.928 220.668 58.64C220.396 58.352 220.26 58.008 220.26 57.608C220.26 57.08 220.472 56.652 220.896 56.324C221.32 55.988 221.88 55.82 222.576 55.82C223 55.82 223.4 55.888 223.776 56.024C224.152 56.16 224.468 56.356 224.724 56.612L224.4 57.32C223.832 56.848 223.224 56.612 222.576 56.612C222.144 56.612 221.808 56.696 221.568 56.864C221.336 57.024 221.22 57.252 221.22 57.548C221.22 57.796 221.292 57.992 221.436 58.136C221.588 58.28 221.828 58.392 222.156 58.472L223.176 58.724C223.736 58.852 224.152 59.052 224.424 59.324C224.696 59.588 224.832 59.936 224.832 60.368C224.832 60.888 224.62 61.304 224.196 61.616C223.772 61.928 223.196 62.084 222.468 62.084ZM238.678 55.964L236.446 62H235.51L233.782 57.284L232.066 62H231.13L228.898 55.964H229.918L231.622 60.836L233.386 55.964H234.238L235.978 60.848L237.718 55.964H238.678ZM239.94 55.964H240.912V62H239.94V55.964ZM241.032 53.408V54.512H239.844V53.408H241.032ZM242.799 53.168H243.771V62H242.799V53.168ZM245.659 53.168H246.631V62H245.659V53.168ZM254.659 55.82C255.187 55.82 255.655 55.948 256.063 56.204C256.471 56.46 256.787 56.824 257.011 57.296C257.235 57.76 257.347 58.304 257.347 58.928C257.347 59.552 257.235 60.104 257.011 60.584C256.787 61.056 256.471 61.424 256.063 61.688C255.655 61.952 255.187 62.084 254.659 62.084C254.187 62.084 253.775 61.98 253.423 61.772C253.071 61.564 252.803 61.268 252.619 60.884V62H251.647V53.168H252.619V57.032C252.795 56.64 253.059 56.34 253.411 56.132C253.771 55.924 254.187 55.82 254.659 55.82ZM254.479 61.28C255.063 61.28 255.519 61.076 255.847 60.668C256.175 60.252 256.339 59.672 256.339 58.928C256.339 58.2 256.175 57.636 255.847 57.236C255.527 56.836 255.071 56.636 254.479 56.636C253.879 56.636 253.419 56.836 253.099 57.236C252.779 57.636 252.619 58.208 252.619 58.952C252.619 59.696 252.779 60.272 253.099 60.68C253.419 61.08 253.879 61.28 254.479 61.28ZM263.894 58.952H259.466C259.474 59.72 259.65 60.3 259.994 60.692C260.346 61.084 260.854 61.28 261.518 61.28C262.222 61.28 262.87 61.044 263.462 60.572L263.786 61.28C263.522 61.528 263.182 61.724 262.766 61.868C262.358 62.012 261.938 62.084 261.506 62.084C260.562 62.084 259.822 61.808 259.286 61.256C258.75 60.696 258.482 59.932 258.482 58.964C258.482 58.348 258.602 57.804 258.842 57.332C259.082 56.852 259.418 56.48 259.85 56.216C260.282 55.952 260.774 55.82 261.326 55.82C262.126 55.82 262.754 56.084 263.21 56.612C263.666 57.132 263.894 57.852 263.894 58.772V58.952ZM261.338 56.576C260.834 56.576 260.422 56.728 260.102 57.032C259.79 57.336 259.59 57.764 259.502 58.316H263.018C262.97 57.748 262.802 57.316 262.514 57.02C262.234 56.724 261.842 56.576 261.338 56.576ZM111.252 70.964V77H110.292V75.908C110.116 76.284 109.848 76.576 109.488 76.784C109.136 76.984 108.724 77.084 108.252 77.084C107.716 77.084 107.244 76.956 106.836 76.7C106.436 76.444 106.124 76.084 105.9 75.62C105.684 75.148 105.576 74.6 105.576 73.976C105.576 73.352 105.688 72.804 105.912 72.332C106.136 71.852 106.448 71.48 106.848 71.216C107.256 70.952 107.724 70.82 108.252 70.82C108.724 70.82 109.136 70.924 109.488 71.132C109.84 71.34 110.108 71.632 110.292 72.008V70.964H111.252ZM108.444 76.28C109.036 76.28 109.492 76.08 109.812 75.68C110.132 75.272 110.292 74.696 110.292 73.952C110.292 73.208 110.132 72.636 109.812 72.236C109.492 71.836 109.036 71.636 108.444 71.636C107.852 71.636 107.388 71.844 107.052 72.26C106.724 72.668 106.56 73.24 106.56 73.976C106.56 74.712 106.724 75.28 107.052 75.68C107.38 76.08 107.844 76.28 108.444 76.28ZM118.435 70.976L115.831 77H114.907L112.339 70.976H113.359L115.399 75.944L117.463 70.976H118.435ZM124.752 70.964V77H123.792V75.908C123.616 76.284 123.348 76.576 122.988 76.784C122.636 76.984 122.224 77.084 121.752 77.084C121.216 77.084 120.744 76.956 120.336 76.7C119.936 76.444 119.624 76.084 119.4 75.62C119.184 75.148 119.076 74.6 119.076 73.976C119.076 73.352 119.188 72.804 119.412 72.332C119.636 71.852 119.948 71.48 120.348 71.216C120.756 70.952 121.224 70.82 121.752 70.82C122.224 70.82 122.636 70.924 122.988 71.132C123.34 71.34 123.608 71.632 123.792 72.008V70.964H124.752ZM121.944 76.28C122.536 76.28 122.992 76.08 123.312 75.68C123.632 75.272 123.792 74.696 123.792 73.952C123.792 73.208 123.632 72.636 123.312 72.236C122.992 71.836 122.536 71.636 121.944 71.636C121.352 71.636 120.888 71.844 120.552 72.26C120.224 72.668 120.06 73.24 120.06 73.976C120.06 74.712 120.224 75.28 120.552 75.68C120.88 76.08 121.344 76.28 121.944 76.28ZM126.631 70.964H127.603V77H126.631V70.964ZM127.723 68.408V69.512H126.535V68.408H127.723ZM129.491 68.168H130.463V77H129.491V68.168ZM137.666 70.964V77H136.706V75.908C136.53 76.284 136.262 76.576 135.902 76.784C135.55 76.984 135.138 77.084 134.666 77.084C134.13 77.084 133.658 76.956 133.25 76.7C132.85 76.444 132.538 76.084 132.314 75.62C132.098 75.148 131.99 74.6 131.99 73.976C131.99 73.352 132.102 72.804 132.326 72.332C132.55 71.852 132.862 71.48 133.262 71.216C133.67 70.952 134.138 70.82 134.666 70.82C135.138 70.82 135.55 70.924 135.902 71.132C136.254 71.34 136.522 71.632 136.706 72.008V70.964H137.666ZM134.858 76.28C135.45 76.28 135.906 76.08 136.226 75.68C136.546 75.272 136.706 74.696 136.706 73.952C136.706 73.208 136.546 72.636 136.226 72.236C135.906 71.836 135.45 71.636 134.858 71.636C134.266 71.636 133.802 71.844 133.466 72.26C133.138 72.668 132.974 73.24 132.974 73.976C132.974 74.712 133.138 75.28 133.466 75.68C133.794 76.08 134.258 76.28 134.858 76.28ZM142.557 70.82C143.085 70.82 143.553 70.948 143.961 71.204C144.369 71.46 144.685 71.824 144.909 72.296C145.133 72.76 145.245 73.304 145.245 73.928C145.245 74.552 145.133 75.104 144.909 75.584C144.685 76.056 144.369 76.424 143.961 76.688C143.553 76.952 143.085 77.084 142.557 77.084C142.085 77.084 141.673 76.98 141.321 76.772C140.969 76.564 140.701 76.268 140.517 75.884V77H139.545V68.168H140.517V72.032C140.693 71.64 140.957 71.34 141.309 71.132C141.669 70.924 142.085 70.82 142.557 70.82ZM142.377 76.28C142.961 76.28 143.417 76.076 143.745 75.668C144.073 75.252 144.237 74.672 144.237 73.928C144.237 73.2 144.073 72.636 143.745 72.236C143.425 71.836 142.969 71.636 142.377 71.636C141.777 71.636 141.317 71.836 140.997 72.236C140.677 72.636 140.517 73.208 140.517 73.952C140.517 74.696 140.677 75.272 140.997 75.68C141.317 76.08 141.777 76.28 142.377 76.28ZM146.741 68.168H147.713V77H146.741V68.168ZM154.652 73.952H150.224C150.232 74.72 150.408 75.3 150.752 75.692C151.104 76.084 151.612 76.28 152.276 76.28C152.98 76.28 153.628 76.044 154.22 75.572L154.544 76.28C154.28 76.528 153.94 76.724 153.524 76.868C153.116 77.012 152.696 77.084 152.264 77.084C151.32 77.084 150.58 76.808 150.044 76.256C149.508 75.696 149.24 74.932 149.24 73.964C149.24 73.348 149.36 72.804 149.6 72.332C149.84 71.852 150.176 71.48 150.608 71.216C151.04 70.952 151.532 70.82 152.084 70.82C152.884 70.82 153.512 71.084 153.968 71.612C154.424 72.132 154.652 72.852 154.652 73.772V73.952ZM152.096 71.576C151.592 71.576 151.18 71.728 150.86 72.032C150.548 72.336 150.348 72.764 150.26 73.316H153.776C153.728 72.748 153.56 72.316 153.272 72.02C152.992 71.724 152.6 71.576 152.096 71.576ZM161.296 77.084C160.28 77.084 159.476 76.824 158.884 76.304L159.208 75.584C159.536 75.84 159.868 76.024 160.204 76.136C160.54 76.248 160.916 76.304 161.332 76.304C161.788 76.304 162.132 76.228 162.364 76.076C162.604 75.916 162.724 75.688 162.724 75.392C162.724 75.152 162.644 74.96 162.484 74.816C162.324 74.672 162.06 74.56 161.692 74.48L160.672 74.24C160.168 74.128 159.776 73.928 159.496 73.64C159.224 73.352 159.088 73.008 159.088 72.608C159.088 72.08 159.3 71.652 159.724 71.324C160.148 70.988 160.708 70.82 161.404 70.82C161.828 70.82 162.228 70.888 162.604 71.024C162.98 71.16 163.296 71.356 163.552 71.612L163.228 72.32C162.66 71.848 162.052 71.612 161.404 71.612C160.972 71.612 160.636 71.696 160.396 71.864C160.164 72.024 160.048 72.252 160.048 72.548C160.048 72.796 160.12 72.992 160.264 73.136C160.416 73.28 160.656 73.392 160.984 73.472L162.004 73.724C162.564 73.852 162.98 74.052 163.252 74.324C163.524 74.588 163.66 74.936 163.66 75.368C163.66 75.888 163.448 76.304 163.024 76.616C162.6 76.928 162.024 77.084 161.296 77.084ZM167.705 77.084C167.137 77.084 166.637 76.956 166.205 76.7C165.773 76.444 165.437 76.08 165.197 75.608C164.965 75.136 164.849 74.584 164.849 73.952C164.849 73.32 164.965 72.768 165.197 72.296C165.437 71.824 165.773 71.46 166.205 71.204C166.637 70.948 167.137 70.82 167.705 70.82C168.273 70.82 168.773 70.948 169.205 71.204C169.637 71.46 169.969 71.824 170.201 72.296C170.441 72.768 170.561 73.32 170.561 73.952C170.561 74.584 170.441 75.136 170.201 75.608C169.969 76.08 169.637 76.444 169.205 76.7C168.773 76.956 168.273 77.084 167.705 77.084ZM167.705 76.28C168.305 76.28 168.765 76.084 169.085 75.692C169.405 75.292 169.565 74.712 169.565 73.952C169.565 73.216 169.401 72.648 169.073 72.248C168.745 71.84 168.289 71.636 167.705 71.636C167.113 71.636 166.653 71.84 166.325 72.248C165.997 72.648 165.833 73.216 165.833 73.952C165.833 74.712 165.993 75.292 166.313 75.692C166.641 76.084 167.105 76.28 167.705 76.28ZM174.573 77.084C174.005 77.084 173.505 76.956 173.073 76.7C172.641 76.444 172.305 76.08 172.065 75.608C171.833 75.136 171.717 74.584 171.717 73.952C171.717 73.32 171.833 72.768 172.065 72.296C172.305 71.824 172.641 71.46 173.073 71.204C173.505 70.948 174.005 70.82 174.573 70.82C175.141 70.82 175.641 70.948 176.073 71.204C176.505 71.46 176.837 71.824 177.069 72.296C177.309 72.768 177.429 73.32 177.429 73.952C177.429 74.584 177.309 75.136 177.069 75.608C176.837 76.08 176.505 76.444 176.073 76.7C175.641 76.956 175.141 77.084 174.573 77.084ZM174.573 76.28C175.173 76.28 175.633 76.084 175.953 75.692C176.273 75.292 176.433 74.712 176.433 73.952C176.433 73.216 176.269 72.648 175.941 72.248C175.613 71.84 175.157 71.636 174.573 71.636C173.981 71.636 173.521 71.84 173.193 72.248C172.865 72.648 172.701 73.216 172.701 73.952C172.701 74.712 172.861 75.292 173.181 75.692C173.509 76.084 173.973 76.28 174.573 76.28ZM181.956 70.82C183.404 70.82 184.128 71.616 184.128 73.208V77H183.156V73.256C183.156 72.696 183.044 72.288 182.82 72.032C182.596 71.768 182.244 71.636 181.764 71.636C181.204 71.636 180.756 71.808 180.42 72.152C180.084 72.496 179.916 72.96 179.916 73.544V77H178.944V72.656C178.944 72.032 178.912 71.468 178.848 70.964H179.772L179.868 72.044C180.052 71.652 180.328 71.352 180.696 71.144C181.064 70.928 181.484 70.82 181.956 70.82ZM185.807 68.456H187.019L186.707 74.756H186.107L185.807 68.456ZM187.031 75.764V77H185.795V75.764H187.031Z" fill="#808080"/>
<path d="M48.1633 37.0674L32 73.0067C32.1722 75.5399 33.1357 76.2365 35.4286 77L71.1837 60.4471C71.1495 49.4079 52.3854 36.069 48.1633 37.0674Z" fill="#5CC4CF" stroke="#5CC4CF"/>
<path d="M48.8319 36.0382C55.9247 34.8706 74.4336 54.5145 71.9325 60.2009C69.4313 65.8872 41.739 37.2058 48.8319 36.0382Z" fill="#36777E"/>
<path d="M56.0103 43.5823C56.0103 43.5823 62.024 46.7115 63.458 43.5823C64.745 40.7738 59.6884 38.7159 60.9754 35.9074C62.4093 32.7782 66.678 38.7847 68.4231 35.9074C69.732 33.7494 68.4231 31.6975 68.4231 29" stroke="#F46A6A" stroke-width="2"/>
<path d="M65.3062 53.9579C67.9976 49.7112 72.6531 47.482 80 50.0726" stroke="#F46A6A" stroke-width="2"/>
<path d="M41.2926 34.9897C42.4178 37.1294 42.2545 39.6408 39.4784 42.1837" stroke="#F46A6A" stroke-width="2"/>
<ellipse cx="56.4899" cy="31.9949" rx="1.95918" ry="1.99663" fill="#FFAB68"/>
<ellipse cx="74.1223" cy="36.9866" rx="1.95918" ry="1.99663" fill="#FFAB68"/>
<ellipse cx="75.1022" cy="55.9544" rx="1.95918" ry="1.99663" fill="#FFAB68"/>
<ellipse cx="66.7755" cy="66.4367" rx="1.46939" ry="1.49747" fill="#FFAB68"/>
<ellipse cx="69.2251" cy="43.9746" rx="0.98" ry="0.998315" fill="#FFAB68"/>
<path opacity="0.4" d="M49.5512 43.9747L32.02 73.9242L56.01 52.6697L49.5512 43.9747Z" fill="white" stroke="white"/>
<defs>
<filter id="filter0_d" x="0" y="0" width="340" height="111" filterUnits="userSpaceOnUse" color-interpolation-filters="sRGB">
<feFlood flood-opacity="0" result="BackgroundImageFix"/>
<feColorMatrix in="SourceAlpha" type="matrix" values="0 0 0 0 0 0 0 0 0 0 0 0 0 0 0 0 0 0 127 0"/>
<feOffset dy="1"/>
<feGaussianBlur stdDeviation="2.5"/>
<feColorMatrix type="matrix" values="0 0 0 0 0 0 0 0 0 0 0 0 0 0 0 0 0 0 0.1 0"/>
<feBlend mode="normal" in2="BackgroundImageFix" result="effect1_dropShadow"/>
<feBlend mode="normal" in="SourceGraphic" in2="effect1_dropShadow" result="shape"/>
</filter>
</defs>
</svg>
