<svg width="374" height="80" viewBox="0 0 374 80" fill="none" xmlns="http://www.w3.org/2000/svg">
<rect width="374" height="80" fill="white"/>
<path d="M28.9 29.37H25.18V28.32H33.865V29.37H30.145V39H28.9V29.37ZM40.3659 35.19H34.8309C34.8409 36.15 35.0609 36.875 35.4909 37.365C35.9309 37.855 36.5659 38.1 37.3959 38.1C38.2759 38.1 39.0859 37.805 39.8259 37.215L40.2309 38.1C39.9009 38.41 39.4759 38.655 38.9559 38.835C38.4459 39.015 37.9209 39.105 37.3809 39.105C36.2009 39.105 35.2759 38.76 34.6059 38.07C33.9359 37.37 33.6009 36.415 33.6009 35.205C33.6009 34.435 33.7509 33.755 34.0509 33.165C34.3509 32.565 34.7709 32.1 35.3109 31.77C35.8509 31.44 36.4659 31.275 37.1559 31.275C38.1559 31.275 38.9409 31.605 39.5109 32.265C40.0809 32.915 40.3659 33.815 40.3659 34.965V35.19ZM37.1709 32.22C36.5409 32.22 36.0259 32.41 35.6259 32.79C35.2359 33.17 34.9859 33.705 34.8759 34.395H39.2709C39.2109 33.685 39.0009 33.145 38.6409 32.775C38.2909 32.405 37.8009 32.22 37.1709 32.22ZM44.76 39.105C43.49 39.105 42.485 38.78 41.745 38.13L42.15 37.23C42.56 37.55 42.975 37.78 43.395 37.92C43.815 38.06 44.285 38.13 44.805 38.13C45.375 38.13 45.805 38.035 46.095 37.845C46.395 37.645 46.545 37.36 46.545 36.99C46.545 36.69 46.445 36.45 46.245 36.27C46.045 36.09 45.715 35.95 45.255 35.85L43.98 35.55C43.35 35.41 42.86 35.16 42.51 34.8C42.17 34.44 42 34.01 42 33.51C42 32.85 42.265 32.315 42.795 31.905C43.325 31.485 44.025 31.275 44.895 31.275C45.425 31.275 45.925 31.36 46.395 31.53C46.865 31.7 47.26 31.945 47.58 32.265L47.175 33.15C46.465 32.56 45.705 32.265 44.895 32.265C44.355 32.265 43.935 32.37 43.635 32.58C43.345 32.78 43.2 33.065 43.2 33.435C43.2 33.745 43.29 33.99 43.47 34.17C43.66 34.35 43.96 34.49 44.37 34.59L45.645 34.905C46.345 35.065 46.865 35.315 47.205 35.655C47.545 35.985 47.715 36.42 47.715 36.96C47.715 37.61 47.45 38.13 46.92 38.52C46.39 38.91 45.67 39.105 44.76 39.105ZM51.1982 32.415V36.54C51.1982 37.1 51.3132 37.495 51.5432 37.725C51.7732 37.945 52.0982 38.055 52.5182 38.055C52.7982 38.055 53.0682 38.01 53.3282 37.92V38.955C53.0182 39.055 52.6682 39.105 52.2782 39.105C51.5582 39.105 50.9932 38.905 50.5832 38.505C50.1832 38.095 49.9832 37.495 49.9832 36.705V32.415H48.5132V31.455H49.9832V29.52L51.1982 29.085V31.455H53.3582V32.415H51.1982ZM58.8835 28.32H65.6335V29.34H60.0985V33.06H65.3335V34.095H60.0985V37.98H65.6335V39H58.8835V28.32ZM71.3168 31.275C73.1268 31.275 74.0318 32.27 74.0318 34.26V39H72.8168V34.32C72.8168 33.62 72.6768 33.11 72.3968 32.79C72.1168 32.46 71.6768 32.295 71.0768 32.295C70.3768 32.295 69.8168 32.51 69.3968 32.94C68.9768 33.37 68.7668 33.95 68.7668 34.68V39H67.5518V33.57C67.5518 32.79 67.5118 32.085 67.4318 31.455H68.5868L68.7068 32.805C68.9368 32.315 69.2818 31.94 69.7418 31.68C70.2018 31.41 70.7268 31.275 71.3168 31.275ZM83.0463 31.455V38.94C83.0463 40.06 82.7563 40.905 82.1763 41.475C81.6063 42.055 80.7613 42.345 79.6413 42.345C78.4913 42.345 77.5013 42.085 76.6713 41.565L76.8813 40.575C77.3613 40.845 77.8113 41.04 78.2313 41.16C78.6613 41.28 79.1313 41.34 79.6413 41.34C80.3713 41.34 80.9213 41.145 81.2913 40.755C81.6613 40.375 81.8463 39.805 81.8463 39.045V37.26C81.6163 37.74 81.2763 38.115 80.8263 38.385C80.3863 38.645 79.8613 38.775 79.2513 38.775C78.5913 38.775 78.0013 38.62 77.4813 38.31C76.9713 38 76.5763 37.56 76.2963 36.99C76.0163 36.42 75.8763 35.765 75.8763 35.025C75.8763 34.285 76.0163 33.63 76.2963 33.06C76.5763 32.49 76.9713 32.05 77.4813 31.74C78.0013 31.43 78.5913 31.275 79.2513 31.275C79.8513 31.275 80.3713 31.405 80.8113 31.665C81.2613 31.925 81.6013 32.29 81.8313 32.76V31.455H83.0463ZM79.4913 37.755C80.2213 37.755 80.7913 37.515 81.2013 37.035C81.6213 36.545 81.8313 35.875 81.8313 35.025C81.8313 34.175 81.6213 33.51 81.2013 33.03C80.7913 32.54 80.2213 32.295 79.4913 32.295C78.7513 32.295 78.1663 32.54 77.7363 33.03C77.3163 33.51 77.1063 34.175 77.1063 35.025C77.1063 35.875 77.3163 36.545 77.7363 37.035C78.1663 37.515 78.7513 37.755 79.4913 37.755ZM85.379 31.455H86.594V39H85.379V31.455ZM86.744 28.26V29.64H85.259V28.26H86.744ZM92.7182 31.275C94.5282 31.275 95.4332 32.27 95.4332 34.26V39H94.2182V34.32C94.2182 33.62 94.0782 33.11 93.7982 32.79C93.5182 32.46 93.0782 32.295 92.4782 32.295C91.7782 32.295 91.2182 32.51 90.7982 32.94C90.3782 33.37 90.1682 33.95 90.1682 34.68V39H88.9532V33.57C88.9532 32.79 88.9132 32.085 88.8332 31.455H89.9882L90.1082 32.805C90.3382 32.315 90.6832 31.94 91.1432 31.68C91.6032 31.41 92.1282 31.275 92.7182 31.275ZM104.043 35.19H98.5076C98.5176 36.15 98.7376 36.875 99.1676 37.365C99.6076 37.855 100.243 38.1 101.073 38.1C101.953 38.1 102.763 37.805 103.503 37.215L103.908 38.1C103.578 38.41 103.153 38.655 102.633 38.835C102.123 39.015 101.598 39.105 101.058 39.105C99.8776 39.105 98.9526 38.76 98.2826 38.07C97.6126 37.37 97.2776 36.415 97.2776 35.205C97.2776 34.435 97.4276 33.755 97.7276 33.165C98.0276 32.565 98.4476 32.1 98.9876 31.77C99.5276 31.44 100.143 31.275 100.833 31.275C101.833 31.275 102.618 31.605 103.188 32.265C103.758 32.915 104.043 33.815 104.043 34.965V35.19ZM100.848 32.22C100.218 32.22 99.7026 32.41 99.3026 32.79C98.9126 33.17 98.6626 33.705 98.5526 34.395H102.948C102.888 33.685 102.678 33.145 102.318 32.775C101.968 32.405 101.478 32.22 100.848 32.22ZM112.202 35.19H106.667C106.677 36.15 106.897 36.875 107.327 37.365C107.767 37.855 108.402 38.1 109.232 38.1C110.112 38.1 110.922 37.805 111.662 37.215L112.067 38.1C111.737 38.41 111.312 38.655 110.792 38.835C110.282 39.015 109.757 39.105 109.217 39.105C108.037 39.105 107.112 38.76 106.442 38.07C105.772 37.37 105.437 36.415 105.437 35.205C105.437 34.435 105.587 33.755 105.887 33.165C106.187 32.565 106.607 32.1 107.147 31.77C107.687 31.44 108.302 31.275 108.992 31.275C109.992 31.275 110.777 31.605 111.347 32.265C111.917 32.915 112.202 33.815 112.202 34.965V35.19ZM109.007 32.22C108.377 32.22 107.862 32.41 107.462 32.79C107.072 33.17 106.822 33.705 106.712 34.395H111.107C111.047 33.685 110.837 33.145 110.477 32.775C110.127 32.405 109.637 32.22 109.007 32.22ZM117.556 31.275C117.806 31.275 118.036 31.305 118.246 31.365L118.216 32.475C117.986 32.395 117.721 32.355 117.421 32.355C116.691 32.355 116.146 32.585 115.786 33.045C115.436 33.495 115.261 34.045 115.261 34.695V39H114.046V33.57C114.046 32.79 114.006 32.085 113.926 31.455H115.081L115.201 32.85C115.391 32.34 115.696 31.95 116.116 31.68C116.536 31.41 117.016 31.275 117.556 31.275ZM128.102 39.12C127.092 39.12 126.212 38.9 125.462 38.46C124.722 38.02 124.152 37.39 123.752 36.57C123.352 35.74 123.152 34.765 123.152 33.645C123.152 32.525 123.352 31.56 123.752 30.75C124.152 29.93 124.722 29.3 125.462 28.86C126.212 28.42 127.092 28.2 128.102 28.2C128.842 28.2 129.517 28.315 130.127 28.545C130.747 28.765 131.282 29.1 131.732 29.55L131.267 30.495C130.757 30.055 130.252 29.74 129.752 29.55C129.262 29.36 128.717 29.265 128.117 29.265C126.947 29.265 126.037 29.645 125.387 30.405C124.747 31.165 124.427 32.245 124.427 33.645C124.427 35.055 124.747 36.145 125.387 36.915C126.027 37.675 126.937 38.055 128.117 38.055C128.717 38.055 129.262 37.96 129.752 37.77C130.252 37.58 130.757 37.265 131.267 36.825L131.732 37.77C131.282 38.22 130.747 38.56 130.127 38.79C129.517 39.01 128.842 39.12 128.102 39.12ZM140.144 31.455V39H138.944V37.635C138.724 38.105 138.389 38.47 137.939 38.73C137.499 38.98 136.984 39.105 136.394 39.105C135.724 39.105 135.134 38.945 134.624 38.625C134.124 38.305 133.734 37.855 133.454 37.275C133.184 36.685 133.049 36 133.049 35.22C133.049 34.44 133.189 33.755 133.469 33.165C133.749 32.565 134.139 32.1 134.639 31.77C135.149 31.44 135.734 31.275 136.394 31.275C136.984 31.275 137.499 31.405 137.939 31.665C138.379 31.925 138.714 32.29 138.944 32.76V31.455H140.144ZM136.634 38.1C137.374 38.1 137.944 37.85 138.344 37.35C138.744 36.84 138.944 36.12 138.944 35.19C138.944 34.26 138.744 33.545 138.344 33.045C137.944 32.545 137.374 32.295 136.634 32.295C135.894 32.295 135.314 32.555 134.894 33.075C134.484 33.585 134.279 34.3 134.279 35.22C134.279 36.14 134.484 36.85 134.894 37.35C135.304 37.85 135.884 38.1 136.634 38.1ZM150.863 31.275C152.533 31.275 153.368 32.27 153.368 34.26V39H152.153V34.32C152.153 33.61 152.028 33.095 151.778 32.775C151.538 32.455 151.143 32.295 150.593 32.295C149.953 32.295 149.453 32.51 149.093 32.94C148.733 33.37 148.553 33.955 148.553 34.695V39H147.338V34.32C147.338 33.62 147.213 33.11 146.963 32.79C146.713 32.46 146.313 32.295 145.763 32.295C145.123 32.295 144.618 32.51 144.248 32.94C143.888 33.37 143.708 33.955 143.708 34.695V39H142.493V33.57C142.493 32.79 142.453 32.085 142.373 31.455H143.528L143.648 32.775C143.858 32.295 144.168 31.925 144.578 31.665C144.998 31.405 145.483 31.275 146.033 31.275C146.633 31.275 147.123 31.395 147.503 31.635C147.883 31.875 148.163 32.245 148.343 32.745C148.573 32.295 148.908 31.94 149.348 31.68C149.798 31.41 150.303 31.275 150.863 31.275ZM159.442 31.275C160.102 31.275 160.687 31.44 161.197 31.77C161.707 32.1 162.102 32.565 162.382 33.165C162.662 33.755 162.802 34.44 162.802 35.22C162.802 36 162.662 36.685 162.382 37.275C162.102 37.855 161.707 38.305 161.197 38.625C160.697 38.945 160.112 39.105 159.442 39.105C158.852 39.105 158.337 38.975 157.897 38.715C157.457 38.455 157.122 38.085 156.892 37.605V42.24H155.677V33.57C155.677 32.79 155.637 32.085 155.557 31.455H156.712L156.832 32.91C157.042 32.39 157.372 31.99 157.822 31.71C158.282 31.42 158.822 31.275 159.442 31.275ZM159.217 38.1C159.957 38.1 160.527 37.85 160.927 37.35C161.337 36.85 161.542 36.14 161.542 35.22C161.542 34.3 161.337 33.585 160.927 33.075C160.517 32.555 159.947 32.295 159.217 32.295C158.467 32.295 157.892 32.545 157.492 33.045C157.092 33.545 156.892 34.26 156.892 35.19C156.892 36.12 157.092 36.84 157.492 37.35C157.892 37.85 158.467 38.1 159.217 38.1ZM171.316 31.455V39H170.116V37.635C169.896 38.105 169.561 38.47 169.111 38.73C168.671 38.98 168.156 39.105 167.566 39.105C166.896 39.105 166.306 38.945 165.796 38.625C165.296 38.305 164.906 37.855 164.626 37.275C164.356 36.685 164.221 36 164.221 35.22C164.221 34.44 164.361 33.755 164.641 33.165C164.921 32.565 165.311 32.1 165.811 31.77C166.321 31.44 166.906 31.275 167.566 31.275C168.156 31.275 168.671 31.405 169.111 31.665C169.551 31.925 169.886 32.29 170.116 32.76V31.455H171.316ZM167.806 38.1C168.546 38.1 169.116 37.85 169.516 37.35C169.916 36.84 170.116 36.12 170.116 35.19C170.116 34.26 169.916 33.545 169.516 33.045C169.116 32.545 168.546 32.295 167.806 32.295C167.066 32.295 166.486 32.555 166.066 33.075C165.656 33.585 165.451 34.3 165.451 35.22C165.451 36.14 165.656 36.85 166.066 37.35C166.476 37.85 167.056 38.1 167.806 38.1ZM173.665 31.455H174.88V39H173.665V31.455ZM175.03 28.26V29.64H173.545V28.26H175.03ZM183.959 31.455V38.94C183.959 40.06 183.669 40.905 183.089 41.475C182.519 42.055 181.674 42.345 180.554 42.345C179.404 42.345 178.414 42.085 177.584 41.565L177.794 40.575C178.274 40.845 178.724 41.04 179.144 41.16C179.574 41.28 180.044 41.34 180.554 41.34C181.284 41.34 181.834 41.145 182.204 40.755C182.574 40.375 182.759 39.805 182.759 39.045V37.26C182.529 37.74 182.189 38.115 181.739 38.385C181.299 38.645 180.774 38.775 180.164 38.775C179.504 38.775 178.914 38.62 178.394 38.31C177.884 38 177.489 37.56 177.209 36.99C176.929 36.42 176.789 35.765 176.789 35.025C176.789 34.285 176.929 33.63 177.209 33.06C177.489 32.49 177.884 32.05 178.394 31.74C178.914 31.43 179.504 31.275 180.164 31.275C180.764 31.275 181.284 31.405 181.724 31.665C182.174 31.925 182.514 32.29 182.744 32.76V31.455H183.959ZM180.404 37.755C181.134 37.755 181.704 37.515 182.114 37.035C182.534 36.545 182.744 35.875 182.744 35.025C182.744 34.175 182.534 33.51 182.114 33.03C181.704 32.54 181.134 32.295 180.404 32.295C179.664 32.295 179.079 32.54 178.649 33.03C178.229 33.51 178.019 34.175 178.019 35.025C178.019 35.875 178.229 36.545 178.649 37.035C179.079 37.515 179.664 37.755 180.404 37.755ZM190.057 31.275C191.867 31.275 192.772 32.27 192.772 34.26V39H191.557V34.32C191.557 33.62 191.417 33.11 191.137 32.79C190.857 32.46 190.417 32.295 189.817 32.295C189.117 32.295 188.557 32.51 188.137 32.94C187.717 33.37 187.507 33.95 187.507 34.68V39H186.292V33.57C186.292 32.79 186.252 32.085 186.172 31.455H187.327L187.447 32.805C187.677 32.315 188.022 31.94 188.482 31.68C188.942 31.41 189.467 31.275 190.057 31.275Z" fill="#373737"/>
<path d="M0 0H9V40V80H0V0Z" fill="#CFD0D8"/>
<line x1="8" y1="79.5" x2="374" y2="79.5" stroke="#E5E5E5"/>
<path d="M326.322 33.608C326.826 33.744 327.21 33.992 327.474 34.352C327.746 34.712 327.882 35.156 327.882 35.684C327.882 36.428 327.606 37.016 327.054 37.448C326.51 37.88 325.774 38.096 324.846 38.096C324.27 38.096 323.714 38.008 323.178 37.832C322.65 37.656 322.214 37.412 321.87 37.1L322.398 35.972C323.158 36.564 323.954 36.86 324.786 36.86C325.33 36.86 325.734 36.752 325.998 36.536C326.27 36.32 326.406 35.992 326.406 35.552C326.406 35.12 326.27 34.804 325.998 34.604C325.726 34.396 325.306 34.292 324.738 34.292H323.61V33.056H324.534C325.638 33.056 326.19 32.636 326.19 31.796C326.19 31.404 326.07 31.104 325.83 30.896C325.59 30.688 325.254 30.584 324.822 30.584C324.054 30.584 323.286 30.88 322.518 31.472L322.002 30.344C322.346 30.04 322.778 29.8 323.298 29.624C323.826 29.44 324.366 29.348 324.918 29.348C325.758 29.348 326.426 29.556 326.922 29.972C327.426 30.38 327.678 30.928 327.678 31.616C327.67 32.088 327.546 32.5 327.306 32.852C327.074 33.196 326.746 33.448 326.322 33.608ZM304.366 52H302.734L301.642 49.156C301.546 48.892 301.398 48.708 301.198 48.604C300.998 48.5 300.738 48.448 300.418 48.448H298.87V52H297.334V43.456H300.994C301.962 43.456 302.698 43.668 303.202 44.092C303.706 44.516 303.958 45.124 303.958 45.916C303.958 46.484 303.806 46.968 303.502 47.368C303.206 47.76 302.782 48.04 302.23 48.208C302.734 48.312 303.098 48.664 303.322 49.264L304.366 52ZM300.778 47.248C301.362 47.248 301.794 47.14 302.074 46.924C302.354 46.708 302.494 46.38 302.494 45.94C302.494 45.508 302.354 45.188 302.074 44.98C301.802 44.764 301.37 44.656 300.778 44.656H298.846V47.248H300.778ZM311.196 49.048H307.02C307.052 49.696 307.212 50.176 307.5 50.488C307.796 50.792 308.232 50.944 308.808 50.944C309.472 50.944 310.088 50.728 310.656 50.296L311.088 51.328C310.8 51.56 310.444 51.748 310.02 51.892C309.604 52.028 309.18 52.096 308.748 52.096C307.756 52.096 306.976 51.816 306.408 51.256C305.84 50.696 305.556 49.928 305.556 48.952C305.556 48.336 305.68 47.788 305.928 47.308C306.176 46.828 306.524 46.456 306.972 46.192C307.42 45.92 307.928 45.784 308.496 45.784C309.328 45.784 309.984 46.056 310.464 46.6C310.952 47.136 311.196 47.876 311.196 48.82V49.048ZM308.532 46.864C308.132 46.864 307.804 46.984 307.548 47.224C307.3 47.456 307.14 47.796 307.068 48.244H309.888C309.84 47.788 309.7 47.444 309.468 47.212C309.244 46.98 308.932 46.864 308.532 46.864ZM318.337 45.952L315.685 52H314.377L311.761 45.952H313.333L315.073 50.296L316.849 45.952H318.337ZM319.356 45.94H320.844V52H319.356V45.94ZM320.928 43.192V44.668H319.26V43.192H320.928ZM328.029 49.048H323.853C323.885 49.696 324.045 50.176 324.333 50.488C324.629 50.792 325.065 50.944 325.641 50.944C326.305 50.944 326.921 50.728 327.489 50.296L327.921 51.328C327.633 51.56 327.277 51.748 326.853 51.892C326.437 52.028 326.013 52.096 325.581 52.096C324.589 52.096 323.809 51.816 323.241 51.256C322.673 50.696 322.389 49.928 322.389 48.952C322.389 48.336 322.513 47.788 322.761 47.308C323.009 46.828 323.357 46.456 323.805 46.192C324.253 45.92 324.761 45.784 325.329 45.784C326.161 45.784 326.817 46.056 327.297 46.6C327.785 47.136 328.029 47.876 328.029 48.82V49.048ZM325.365 46.864C324.965 46.864 324.637 46.984 324.381 47.224C324.133 47.456 323.973 47.796 323.901 48.244H326.721C326.673 47.788 326.533 47.444 326.301 47.212C326.077 46.98 325.765 46.864 325.365 46.864ZM339.082 45.94L336.706 52H335.398L333.898 48.028L332.434 52H331.114L328.738 45.94H330.274L331.834 50.212L333.406 45.94H334.486L336.058 50.248L337.618 45.94H339.082ZM345.466 49.048H341.29C341.322 49.696 341.482 50.176 341.77 50.488C342.066 50.792 342.502 50.944 343.078 50.944C343.742 50.944 344.358 50.728 344.926 50.296L345.358 51.328C345.07 51.56 344.714 51.748 344.29 51.892C343.874 52.028 343.45 52.096 343.018 52.096C342.026 52.096 341.246 51.816 340.678 51.256C340.11 50.696 339.826 49.928 339.826 48.952C339.826 48.336 339.95 47.788 340.198 47.308C340.446 46.828 340.794 46.456 341.242 46.192C341.69 45.92 342.198 45.784 342.766 45.784C343.598 45.784 344.254 46.056 344.734 46.6C345.222 47.136 345.466 47.876 345.466 48.82V49.048ZM342.802 46.864C342.402 46.864 342.074 46.984 341.818 47.224C341.57 47.456 341.41 47.796 341.338 48.244H344.158C344.11 47.788 343.97 47.444 343.738 47.212C343.514 46.98 343.202 46.864 342.802 46.864ZM352.772 43.168V52H351.296V51.028C351.112 51.364 350.848 51.628 350.504 51.82C350.16 52.004 349.768 52.096 349.328 52.096C348.808 52.096 348.344 51.964 347.936 51.7C347.528 51.436 347.208 51.064 346.976 50.584C346.752 50.096 346.64 49.54 346.64 48.916C346.64 48.292 346.752 47.744 346.976 47.272C347.2 46.8 347.516 46.436 347.924 46.18C348.332 45.916 348.8 45.784 349.328 45.784C349.76 45.784 350.144 45.876 350.48 46.06C350.824 46.236 351.088 46.488 351.272 46.816V43.168H352.772ZM349.724 50.92C350.22 50.92 350.604 50.748 350.876 50.404C351.156 50.06 351.296 49.572 351.296 48.94C351.296 48.308 351.16 47.82 350.888 47.476C350.616 47.132 350.232 46.96 349.736 46.96C349.232 46.96 348.84 47.132 348.56 47.476C348.288 47.812 348.152 48.292 348.152 48.916C348.152 49.548 348.288 50.04 348.56 50.392C348.84 50.744 349.228 50.92 349.724 50.92Z" fill="#AFAFB2"/>
<path d="M28.056 48.456H29.04V56.16H33.324V57H28.056V48.456ZM40.0193 50.964V57H39.0593V55.908C38.8833 56.284 38.6153 56.576 38.2553 56.784C37.9033 56.984 37.4913 57.084 37.0193 57.084C36.4833 57.084 36.0113 56.956 35.6033 56.7C35.2033 56.444 34.8913 56.084 34.6673 55.62C34.4513 55.148 34.3433 54.6 34.3433 53.976C34.3433 53.352 34.4553 52.804 34.6793 52.332C34.9033 51.852 35.2153 51.48 35.6153 51.216C36.0233 50.952 36.4913 50.82 37.0193 50.82C37.4913 50.82 37.9033 50.924 38.2553 51.132C38.6073 51.34 38.8753 51.632 39.0593 52.008V50.964H40.0193ZM37.2113 56.28C37.8033 56.28 38.2593 56.08 38.5793 55.68C38.8993 55.272 39.0593 54.696 39.0593 53.952C39.0593 53.208 38.8993 52.636 38.5793 52.236C38.2593 51.836 37.8033 51.636 37.2113 51.636C36.6193 51.636 36.1553 51.844 35.8193 52.26C35.4913 52.668 35.3273 53.24 35.3273 53.976C35.3273 54.712 35.4913 55.28 35.8193 55.68C36.1473 56.08 36.6113 56.28 37.2113 56.28ZM44.1787 57.084C43.1627 57.084 42.3587 56.824 41.7667 56.304L42.0907 55.584C42.4187 55.84 42.7507 56.024 43.0867 56.136C43.4227 56.248 43.7987 56.304 44.2147 56.304C44.6707 56.304 45.0147 56.228 45.2467 56.076C45.4867 55.916 45.6067 55.688 45.6067 55.392C45.6067 55.152 45.5267 54.96 45.3667 54.816C45.2067 54.672 44.9427 54.56 44.5747 54.48L43.5547 54.24C43.0507 54.128 42.6587 53.928 42.3787 53.64C42.1067 53.352 41.9707 53.008 41.9707 52.608C41.9707 52.08 42.1827 51.652 42.6067 51.324C43.0307 50.988 43.5907 50.82 44.2867 50.82C44.7107 50.82 45.1107 50.888 45.4867 51.024C45.8627 51.16 46.1787 51.356 46.4347 51.612L46.1107 52.32C45.5427 51.848 44.9347 51.612 44.2867 51.612C43.8547 51.612 43.5187 51.696 43.2787 51.864C43.0467 52.024 42.9307 52.252 42.9307 52.548C42.9307 52.796 43.0027 52.992 43.1467 53.136C43.2987 53.28 43.5387 53.392 43.8667 53.472L44.8867 53.724C45.4467 53.852 45.8627 54.052 46.1347 54.324C46.4067 54.588 46.5427 54.936 46.5427 55.368C46.5427 55.888 46.3307 56.304 45.9067 56.616C45.4827 56.928 44.9067 57.084 44.1787 57.084ZM49.5692 51.732V55.032C49.5692 55.48 49.6612 55.796 49.8452 55.98C50.0292 56.156 50.2892 56.244 50.6252 56.244C50.8492 56.244 51.0652 56.208 51.2732 56.136V56.964C51.0252 57.044 50.7452 57.084 50.4332 57.084C49.8572 57.084 49.4052 56.924 49.0772 56.604C48.7572 56.276 48.5972 55.796 48.5972 55.164V51.732H47.4212V50.964H48.5972V49.416L49.5692 49.068V50.964H51.2972V51.732H49.5692ZM58.8854 50.82C59.0854 50.82 59.2694 50.844 59.4374 50.892L59.4134 51.78C59.2294 51.716 59.0174 51.684 58.7774 51.684C58.1934 51.684 57.7574 51.868 57.4694 52.236C57.1894 52.596 57.0494 53.036 57.0494 53.556V57H56.0774V52.656C56.0774 52.032 56.0454 51.468 55.9814 50.964H56.9054L57.0014 52.08C57.1534 51.672 57.3974 51.36 57.7334 51.144C58.0694 50.928 58.4534 50.82 58.8854 50.82ZM65.5999 53.952H61.1719C61.1799 54.72 61.3559 55.3 61.6999 55.692C62.0519 56.084 62.5599 56.28 63.2239 56.28C63.9279 56.28 64.5759 56.044 65.1679 55.572L65.4919 56.28C65.2279 56.528 64.8879 56.724 64.4719 56.868C64.0639 57.012 63.6439 57.084 63.2119 57.084C62.2679 57.084 61.5279 56.808 60.9919 56.256C60.4559 55.696 60.1879 54.932 60.1879 53.964C60.1879 53.348 60.3079 52.804 60.5479 52.332C60.7879 51.852 61.1239 51.48 61.5559 51.216C61.9879 50.952 62.4799 50.82 63.0319 50.82C63.8319 50.82 64.4599 51.084 64.9159 51.612C65.3719 52.132 65.5999 52.852 65.5999 53.772V53.952ZM63.0439 51.576C62.5399 51.576 62.1279 51.728 61.8079 52.032C61.4959 52.336 61.2959 52.764 61.2079 53.316H64.7239C64.6759 52.748 64.5079 52.316 64.2199 52.02C63.9399 51.724 63.5479 51.576 63.0439 51.576ZM72.5489 50.976L69.9449 57H69.0209L66.4529 50.976H67.4729L69.5129 55.944L71.5769 50.976H72.5489ZM73.8599 50.964H74.8319V57H73.8599V50.964ZM74.9519 48.408V49.512H73.7639V48.408H74.9519ZM82.0113 53.952H77.5833C77.5913 54.72 77.7673 55.3 78.1113 55.692C78.4633 56.084 78.9713 56.28 79.6353 56.28C80.3393 56.28 80.9873 56.044 81.5793 55.572L81.9033 56.28C81.6393 56.528 81.2993 56.724 80.8833 56.868C80.4753 57.012 80.0553 57.084 79.6233 57.084C78.6793 57.084 77.9393 56.808 77.4033 56.256C76.8673 55.696 76.5993 54.932 76.5993 53.964C76.5993 53.348 76.7193 52.804 76.9593 52.332C77.1993 51.852 77.5353 51.48 77.9673 51.216C78.3993 50.952 78.8913 50.82 79.4433 50.82C80.2433 50.82 80.8713 51.084 81.3273 51.612C81.7833 52.132 82.0113 52.852 82.0113 53.772V53.952ZM79.4553 51.576C78.9513 51.576 78.5393 51.728 78.2193 52.032C77.9073 52.336 77.7073 52.764 77.6193 53.316H81.1353C81.0873 52.748 80.9193 52.316 80.6313 52.02C80.3513 51.724 79.9593 51.576 79.4553 51.576ZM92.8243 50.964L90.5923 57H89.6563L87.9283 52.284L86.2123 57H85.2763L83.0443 50.964H84.0643L85.7683 55.836L87.5323 50.964H88.3843L90.1243 55.848L91.8643 50.964H92.8243ZM99.3077 53.952H94.8797C94.8877 54.72 95.0637 55.3 95.4077 55.692C95.7597 56.084 96.2677 56.28 96.9317 56.28C97.6357 56.28 98.2837 56.044 98.8757 55.572L99.1997 56.28C98.9357 56.528 98.5957 56.724 98.1797 56.868C97.7717 57.012 97.3517 57.084 96.9197 57.084C95.9757 57.084 95.2357 56.808 94.6997 56.256C94.1637 55.696 93.8957 54.932 93.8957 53.964C93.8957 53.348 94.0157 52.804 94.2557 52.332C94.4957 51.852 94.8317 51.48 95.2637 51.216C95.6957 50.952 96.1877 50.82 96.7397 50.82C97.5397 50.82 98.1677 51.084 98.6237 51.612C99.0797 52.132 99.3077 52.852 99.3077 53.772V53.952ZM96.7517 51.576C96.2477 51.576 95.8357 51.728 95.5157 52.032C95.2037 52.336 95.0037 52.764 94.9157 53.316H98.4317C98.3837 52.748 98.2157 52.316 97.9277 52.02C97.6477 51.724 97.2557 51.576 96.7517 51.576ZM106.339 48.168V57H105.379V55.908C105.203 56.284 104.935 56.576 104.575 56.784C104.223 56.984 103.811 57.084 103.339 57.084C102.811 57.084 102.343 56.952 101.935 56.688C101.535 56.424 101.223 56.056 100.999 55.584C100.775 55.104 100.663 54.552 100.663 53.928C100.663 53.304 100.771 52.76 100.987 52.296C101.211 51.824 101.527 51.46 101.935 51.204C102.343 50.948 102.811 50.82 103.339 50.82C103.811 50.82 104.223 50.924 104.575 51.132C104.927 51.332 105.191 51.616 105.367 51.984V48.168H106.339ZM103.531 56.28C104.123 56.28 104.579 56.08 104.899 55.68C105.219 55.272 105.379 54.696 105.379 53.952C105.379 53.216 105.219 52.648 104.899 52.248C104.579 51.84 104.123 51.636 103.531 51.636C102.939 51.636 102.475 51.836 102.139 52.236C101.811 52.636 101.647 53.2 101.647 53.928C101.647 54.672 101.811 55.252 102.139 55.668C102.475 56.076 102.939 56.28 103.531 56.28ZM118.799 48.456V57H118.031L112.871 50.124V57H111.947V48.456H112.703L117.863 55.332V48.456H118.799ZM123.516 57.084C122.948 57.084 122.448 56.956 122.016 56.7C121.584 56.444 121.248 56.08 121.008 55.608C120.776 55.136 120.66 54.584 120.66 53.952C120.66 53.32 120.776 52.768 121.008 52.296C121.248 51.824 121.584 51.46 122.016 51.204C122.448 50.948 122.948 50.82 123.516 50.82C124.084 50.82 124.584 50.948 125.016 51.204C125.448 51.46 125.78 51.824 126.012 52.296C126.252 52.768 126.372 53.32 126.372 53.952C126.372 54.584 126.252 55.136 126.012 55.608C125.78 56.08 125.448 56.444 125.016 56.7C124.584 56.956 124.084 57.084 123.516 57.084ZM123.516 56.28C124.116 56.28 124.576 56.084 124.896 55.692C125.216 55.292 125.376 54.712 125.376 53.952C125.376 53.216 125.212 52.648 124.884 52.248C124.556 51.84 124.1 51.636 123.516 51.636C122.924 51.636 122.464 51.84 122.136 52.248C121.808 52.648 121.644 53.216 121.644 53.952C121.644 54.712 121.804 55.292 122.124 55.692C122.452 56.084 122.916 56.28 123.516 56.28ZM133.361 50.976L130.757 57H129.833L127.265 50.976H128.285L130.325 55.944L132.389 50.976H133.361ZM143.597 56.172V57H138.101V56.256L141.089 52.944C141.489 52.496 141.781 52.092 141.965 51.732C142.149 51.372 142.241 51.012 142.241 50.652C142.241 50.18 142.105 49.82 141.833 49.572C141.561 49.316 141.173 49.188 140.669 49.188C139.853 49.188 139.045 49.516 138.245 50.172L137.873 49.416C138.209 49.096 138.633 48.84 139.145 48.648C139.657 48.456 140.173 48.36 140.693 48.36C141.477 48.36 142.097 48.564 142.553 48.972C143.009 49.372 143.237 49.916 143.237 50.604C143.237 51.092 143.125 51.564 142.901 52.02C142.685 52.468 142.321 52.972 141.809 53.532L139.373 56.172H143.597Z" fill="#808080"/>
</svg>
