<svg width="90" height="20" viewBox="0 0 90 20" fill="none" xmlns="http://www.w3.org/2000/svg">
<path d="M6.18746 15.1733H4.86158C4.69584 15.1733 4.53011 15.0346 4.53011 14.8405V3.02353C4.53011 2.85709 4.39199 2.69066 4.19863 2.69066H0.331471C0.138113 2.7184 0 2.5797 0 2.38553V1.27596C0 1.10952 0.138113 0.970825 0.331471 0.970825H10.7452C10.9109 0.970825 11.049 1.10952 11.049 1.27596V2.38553C11.049 2.55196 10.9109 2.7184 10.7176 2.7184H6.8504C6.68467 2.7184 6.51893 2.85709 6.51893 3.05127V14.8682C6.51893 15.0346 6.38082 15.1733 6.18746 15.1733Z" fill="#808080"/>
<path d="M19.8053 10.4022C19.8053 11.1512 19.6672 11.8169 19.4186 12.4272C19.17 13.0375 18.8109 13.5645 18.3413 14.0361C17.8717 14.4799 17.3469 14.8405 16.7116 15.0902C16.0763 15.3398 15.4133 15.4508 14.6951 15.4508C13.977 15.4508 13.314 15.3398 12.6787 15.0902C12.0434 14.8405 11.5185 14.5077 11.049 14.0361C10.607 13.5923 10.2479 13.0652 9.97168 12.4272C9.72307 11.8169 9.58496 11.1235 9.58496 10.4022C9.58496 9.65329 9.72307 8.98754 9.97168 8.37728C10.2203 7.76702 10.5794 7.23997 11.049 6.79614C11.4909 6.35231 12.0434 6.01944 12.6787 5.76979C13.314 5.52014 13.977 5.40918 14.6951 5.40918C15.4133 5.40918 16.0763 5.52014 16.7116 5.76979C17.3469 6.01944 17.8717 6.35231 18.3413 6.79614C18.8109 7.23997 19.17 7.76702 19.4186 8.37728C19.6948 8.98754 19.8053 9.65329 19.8053 10.4022ZM17.8441 10.4022C17.8441 9.95842 17.7613 9.51459 17.6231 9.0985C17.485 8.68241 17.2917 8.3218 17.0154 8.01667C16.7392 7.71154 16.4077 7.46188 16.021 7.26771C15.6343 7.07354 15.1647 6.99032 14.6675 6.99032C14.1703 6.99032 13.7007 7.07354 13.314 7.26771C12.9273 7.46188 12.5958 7.71154 12.3196 8.01667C12.0434 8.3218 11.85 8.68241 11.7119 9.0985C11.5738 9.51459 11.4909 9.95842 11.4909 10.4022C11.4909 10.8461 11.5738 11.2899 11.7119 11.706C11.85 12.1221 12.0434 12.4827 12.3196 12.8156C12.5958 13.1484 12.9273 13.3981 13.314 13.5645C13.7007 13.7587 14.1703 13.8419 14.6675 13.8419C15.1647 13.8419 15.6343 13.7587 16.021 13.5645C16.4077 13.3703 16.7392 13.1207 17.0154 12.8156C17.2917 12.4827 17.485 12.1221 17.6231 11.706C17.7889 11.2899 17.8441 10.8738 17.8441 10.4022Z" fill="#808080"/>
<path d="M23.2859 20H22.0429C21.8772 20 21.7114 19.8613 21.7114 19.6672V5.9917C21.7114 5.82527 21.8495 5.65883 22.0429 5.65883H23.2307C23.3964 5.65883 23.5621 5.79753 23.5621 5.9917V7.15675H23.6174C23.9212 6.65745 24.3632 6.24136 24.9709 5.90849C25.551 5.57561 26.2415 5.40918 27.0426 5.40918C27.7608 5.40918 28.3961 5.54788 28.9762 5.79753C29.5562 6.04718 30.0534 6.40779 30.4678 6.85162C30.8821 7.29545 31.2136 7.85023 31.4346 8.4605C31.6556 9.07076 31.766 9.70876 31.766 10.43C31.766 11.1235 31.6556 11.7892 31.4346 12.3995C31.2136 13.0097 30.8821 13.5645 30.4678 14.0083C30.0534 14.4522 29.5562 14.8128 28.9762 15.0902C28.3961 15.3398 27.7332 15.4785 27.015 15.4785C26.3244 15.4785 25.6891 15.3398 25.109 15.0347C24.5013 14.7296 24.0317 14.3135 23.7003 13.7864H23.645V19.7226C23.5898 19.8613 23.4517 20 23.2859 20ZM29.8325 10.4022C29.8325 9.95842 29.7772 9.54233 29.6391 9.12624C29.501 8.71015 29.3076 8.34954 29.0314 8.01667C28.7552 7.6838 28.4237 7.43415 28.037 7.23997C27.6503 7.0458 27.1807 6.96258 26.6559 6.96258C26.1863 6.96258 25.7443 7.0458 25.3576 7.23997C24.9709 7.43415 24.6394 7.6838 24.3356 8.01667C24.0593 8.34954 23.8384 8.71015 23.6726 9.12624C23.5069 9.54233 23.4516 9.98616 23.4516 10.43C23.4516 10.8738 23.5345 11.3176 23.6726 11.7337C23.8384 12.1498 24.0317 12.5104 24.3356 12.8156C24.6394 13.1207 24.9433 13.3703 25.3576 13.5645C25.7443 13.7587 26.1863 13.8419 26.6559 13.8419C27.1807 13.8419 27.6227 13.7587 28.037 13.5645C28.4237 13.3703 28.7552 13.1207 29.0314 12.7878C29.3076 12.4549 29.501 12.0943 29.6391 11.6782C29.7772 11.2622 29.8325 10.8461 29.8325 10.4022Z" fill="#808080"/>
<path d="M35.4674 15.1735H34.1415C33.9758 15.1735 33.8101 15.0348 33.8101 14.8406V1.27611C33.8101 1.10967 33.9482 0.943237 34.1415 0.943237H42.3454C42.5112 0.943237 42.6769 1.08193 42.6769 1.27611V2.38568C42.6769 2.55211 42.5388 2.71855 42.3454 2.71855H36.1304C35.9646 2.71855 35.7989 2.85725 35.7989 3.05142V6.82396C35.7989 6.99039 35.937 7.15683 36.1304 7.15683H41.9035C42.0692 7.15683 42.2349 7.29553 42.2349 7.4897V8.54379C42.2349 8.71023 42.0968 8.87666 41.9035 8.87666H36.1304C35.9646 8.87666 35.7989 9.01536 35.7989 9.20954V14.9238C35.7713 15.0348 35.6331 15.1735 35.4674 15.1735Z" fill="#808080"/>
<path d="M50.4942 15.1735C50.3285 15.1735 50.1904 15.0348 50.1628 14.8684C50.1628 14.7019 50.1351 14.5355 50.1351 14.3413C50.1351 14.0362 50.1075 13.7865 50.1075 13.5924H50.0799C49.8313 14.0917 49.4446 14.5355 48.8645 14.8961C48.2844 15.2567 47.6767 15.4232 46.9862 15.4232C46.3785 15.4232 45.8536 15.3122 45.3841 15.118C44.9421 14.9238 44.583 14.6465 44.2792 14.2858C44.0029 13.9252 43.7819 13.5091 43.6438 13.0376C43.5057 12.566 43.4229 12.0667 43.4229 11.5397V5.99181C43.4229 5.82537 43.561 5.65894 43.7543 5.65894H44.9973C45.1631 5.65894 45.3288 5.79763 45.3288 5.99181V10.9294C45.3288 11.3177 45.3564 11.6784 45.4117 12.039C45.4669 12.3996 45.5774 12.7047 45.7431 12.9821C45.9089 13.2595 46.1299 13.4537 46.4061 13.6201C46.6823 13.7865 47.0414 13.8698 47.4834 13.8698C48.2568 13.8698 48.8645 13.5924 49.3341 13.0098C49.8037 12.4273 50.0246 11.6784 50.0246 10.7352V5.99181C50.0246 5.82537 50.1628 5.65894 50.3561 5.65894H51.5991C51.7649 5.65894 51.9306 5.79763 51.9306 5.99181V13.1485C51.9306 13.3982 51.9306 13.7311 51.9582 14.1194C51.9582 14.3691 51.9858 14.6187 51.9858 14.8406C51.9858 15.0348 51.8477 15.1735 51.6544 15.1735H50.4942V15.1735Z" fill="#808080"/>
<path d="M55.8527 5.65883C56.0184 5.65883 56.1565 5.79753 56.1841 5.96396C56.1841 6.1304 56.2118 6.29684 56.2118 6.49101C56.2118 6.79614 56.2394 7.0458 56.2394 7.23997H56.2946C56.4051 6.99032 56.5709 6.74066 56.7918 6.51875C56.9852 6.29684 57.2338 6.10266 57.51 5.93623C57.7862 5.76979 58.0625 5.63109 58.3939 5.54788C58.7254 5.46466 59.0569 5.40918 59.3883 5.40918C59.996 5.40918 60.5209 5.52014 60.9628 5.71431C61.4048 5.90849 61.7639 6.21362 62.0677 6.54649C62.3716 6.9071 62.5649 7.29545 62.7307 7.76702C62.8688 8.23858 62.9516 8.73789 62.9516 9.26494V14.8405C62.9516 15.007 62.8135 15.1734 62.6202 15.1734H61.3772C61.2114 15.1734 61.0457 15.0347 61.0457 14.8405V9.90294C61.0457 9.51459 61.0181 9.15398 60.9628 8.79337C60.9076 8.43276 60.7971 8.12763 60.6314 7.87797C60.4656 7.60058 60.2446 7.40641 59.9684 7.23997C59.6922 7.07354 59.3331 6.99032 58.8911 6.99032C58.1453 6.99032 57.5376 7.26771 57.0681 7.85023C56.5985 8.43276 56.3499 9.18172 56.3499 10.1249V14.8683C56.3499 15.0347 56.2118 15.2011 56.0184 15.2011H54.7754C54.6097 15.2011 54.4439 15.0624 54.4439 14.8683V7.71154C54.4439 7.46188 54.4439 7.12901 54.4163 6.74066C54.4163 6.49101 54.3887 6.24136 54.3887 6.01944C54.3887 5.82527 54.5268 5.68657 54.7201 5.68657H55.8527V5.65883Z" fill="#808080"/>
<path d="M66.7916 5.65883C66.9574 5.65883 67.0955 5.79753 67.1231 5.96396C67.1231 6.1304 67.1507 6.29684 67.1507 6.49101C67.1507 6.79614 67.1784 7.0458 67.1784 7.23997H67.2336C67.3441 6.99032 67.5098 6.74066 67.7308 6.51875C67.9242 6.29684 68.1728 6.10266 68.449 5.93623C68.7252 5.76979 69.0014 5.63109 69.3329 5.54788C69.6644 5.46466 69.9959 5.40918 70.3273 5.40918C70.935 5.40918 71.4599 5.52014 71.9018 5.71431C72.3438 5.90849 72.7029 6.21362 73.0067 6.54649C73.3106 6.9071 73.5039 7.29545 73.6697 7.76702C73.8078 8.23858 73.8906 8.73789 73.8906 9.26494V14.8405C73.8906 15.007 73.7525 15.1734 73.5592 15.1734H72.3162C72.1504 15.1734 71.9847 15.0347 71.9847 14.8405V9.90294C71.9847 9.51459 71.9571 9.15398 71.9018 8.79337C71.8466 8.43276 71.7361 8.12763 71.5703 7.87797C71.4046 7.60058 71.1836 7.40641 70.9074 7.23997C70.6312 7.07354 70.2721 6.99032 69.8301 6.99032C69.0843 6.99032 68.4766 7.26771 68.007 7.85023C67.5374 8.43276 67.2888 9.18172 67.2888 10.1249V14.8683C67.2888 15.0347 67.1507 15.2011 66.9574 15.2011H65.7144C65.5486 15.2011 65.3829 15.0624 65.3829 14.8683V7.71154C65.3829 7.46188 65.3829 7.12901 65.3553 6.74066C65.3553 6.49101 65.3276 6.24136 65.3276 6.01944C65.3276 5.82527 65.4657 5.68657 65.6591 5.68657H66.7916V5.65883Z" fill="#808080"/>
<path d="M85.1883 10.3466C85.1883 10.4576 85.1883 10.5685 85.1883 10.6795C85.1883 10.7904 85.1883 10.7904 85.1883 10.7904C85.1883 10.9014 85.0502 11.0124 84.8844 11.0124H77.8959C77.7578 11.0124 77.6473 11.1233 77.6473 11.2898C77.6473 11.2898 77.7026 11.7891 77.8683 12.1497C78.034 12.5103 78.255 12.8154 78.5312 13.0651C78.8075 13.3147 79.1389 13.5366 79.498 13.6753C79.8571 13.814 80.2438 13.8972 80.6582 13.8972C81.2935 13.8972 81.8459 13.7585 82.3155 13.4812C82.6746 13.2592 82.9785 13.0096 83.2271 12.7045C83.3376 12.5658 83.5309 12.5658 83.669 12.649L84.4701 13.3147C84.6082 13.4257 84.6358 13.6198 84.5253 13.7585C84.0558 14.3133 83.5309 14.7294 82.9232 15.0068C82.2327 15.3119 81.4869 15.4784 80.6306 15.4784C79.9124 15.4784 79.2494 15.3674 78.6417 15.1178C78.034 14.8681 77.5092 14.5352 77.0672 14.0914C76.6253 13.6476 76.2938 13.1205 76.0176 12.5103C75.769 11.9 75.6309 11.2065 75.6309 10.4576C75.6309 9.70861 75.7414 9.04287 75.99 8.43261C76.2386 7.82234 76.57 7.26756 77.012 6.82373C77.454 6.3799 77.9788 6.04703 78.5865 5.79738C79.1942 5.54772 79.8295 5.43677 80.5201 5.43677C81.2106 5.43677 81.8459 5.54772 82.426 5.76964C83.0061 5.99155 83.4757 6.32442 83.8624 6.74051C84.2491 7.1566 84.553 7.68365 84.7739 8.29391C85.0778 8.90417 85.1883 9.56992 85.1883 10.3466ZM83.0061 9.56992C83.1442 9.56992 83.2823 9.45896 83.2547 9.29252C83.2547 9.29252 83.1994 8.8487 83.089 8.51583C82.9785 8.18295 82.8127 7.90556 82.5918 7.65591C82.3708 7.40626 82.0945 7.21208 81.7631 7.07338C81.4316 6.93469 81.0449 6.85147 80.6029 6.85147C80.2162 6.85147 79.8295 6.93469 79.4704 7.07338C79.1113 7.21208 78.8075 7.40626 78.5589 7.65591C78.3103 7.90556 78.0893 8.18295 77.9235 8.51583C77.7578 8.8487 77.6749 9.29252 77.6749 9.29252C77.6473 9.43122 77.7578 9.56992 77.8959 9.56992H83.0061Z" fill="#808080"/>
<path d="M88.6961 15.1734H87.4531C87.2873 15.1734 87.1216 15.0347 87.1216 14.8405V0.332871C87.1216 0.166436 87.2597 0 87.4531 0H88.6961C88.8618 0 89.0275 0.138696 89.0275 0.332871V14.8682C88.9999 15.0347 88.8618 15.1734 88.6961 15.1734Z" fill="#808080"/>
</svg>
